<svg xmlns="http://www.w3.org/2000/svg"
     xmlns:xlink="http://www.w3.org/1999/xlink"
     width="40px" height="21px"  viewBox="0 0 40 21">
    <path fill-rule="evenodd"  fill="#ffffff"
          d="M37.770264,2.2072754 C37.464966,1.9144287 36.968506,1.9144287 36.66327,2.2072754 C36.66327,2.2072754 19.994385,18.187744 19.994385,18.187744 C19.994385,18.187744 3.3239136,2.2086792 3.3239136,2.2086792 C3.0185547,1.9158325 2.5222168,1.9158325 2.216919,2.2086792 C1.91156,2.5010986 1.91156,2.9769287 2.216919,3.2698364 C2.216919,3.2698364 19.440186,19.78009 19.440186,19.78009 C19.593628,19.926086 19.794006,19.999084 19.994385,19.999084 C20.194763,19.999084 20.395142,19.926086 20.54712,19.778687 C20.54712,19.778687 37.770264,3.2683716 37.770264,3.2683716 C38.075623,2.975525 38.075623,2.4996948 37.770264,2.2072754 Z"/>
</svg>