<svg xmlns="http://www.w3.org/2000/svg"
     xmlns:xlink="http://www.w3.org/1999/xlink"
     width="31px" height="31px"  viewBox="0 0 31 31">
    <path fill-rule="evenodd"  fill="#a2a2a2"
          d="M20.98822,18.47168 C20.98822,18.47168 17.084198,15.543457 17.084198,15.543457 C17.084198,15.543457 17.084198,9.580078 17.084198,9.580078 C17.084198,8.979492 16.599548,8.495117 15.999756,8.495117 C15.4002075,8.495117 14.915405,8.979492 14.915405,9.580078 C14.915405,9.580078 14.915405,16.086426 14.915405,16.086426 C14.915405,16.427734 15.075867,16.75 15.34903,16.954102 C15.34903,16.954102 19.68692,20.207031 19.68692,20.207031 C19.881927,20.353516 20.109894,20.423828 20.336487,20.423828 C20.667236,20.423828 20.992462,20.27539 21.204987,19.98877 C21.565125,19.510742 21.46762,18.830566 20.98822,18.47168 ZM15.999878,1.9990234 C8.279785,1.9990234 1.9999695,8.279297 1.9999695,15.999512 C1.9999695,23.719727 8.279785,29.999512 15.999878,29.999512 C23.71994,29.999512 29.999878,23.719727 29.999878,15.999512 C29.999878,8.279297 23.71994,1.9990234 15.999878,1.9990234 ZM15.999878,27.830566 C9.476959,27.830566 4.1687317,22.521973 4.1687317,15.999512 C4.1687317,9.4765625 9.476959,4.168457 15.999878,4.168457 C22.523804,4.168457 27.831116,9.4765625 27.831116,15.999512 C27.831116,22.521973 22.522766,27.830566 15.999878,27.830566 Z"/>
</svg>