<svg xmlns="http://www.w3.org/2000/svg" width="394" height="522" viewBox="0 0 394 522">
    <style type="text/css">
        .st1{stroke:#000000;fill:none;stroke-width:10;}
        .st0{fill:#000000;}
    </style>
    <path class="st0" d="M197,477.86C158.79,436.96 37,298.66 37,197C37,108.77 108.77,37 197,37C285.22,37 357,108.77 357,197C357,298.56 235.2,436.96 197,477.86M197,5C91.11,5 5,91.11 5,197C5,330.08 178.31,504.93 185.67,512.32C188.8,515.43 192.9,517 197,517C201.09,517 205.19,515.43 208.32,512.32C215.68,504.93 389,330.08 389,197C389,91.11 302.88,5 197,5"/>
    <path class="st1" d="M197,477.86C158.79,436.96 37,298.66 37,197C37,108.77 108.77,37 197,37C285.22,37 357,108.77 357,197C357,298.56 235.2,436.96 197,477.86ZM197,5C91.11,5 5,91.11 5,197C5,330.08 178.31,504.93 185.67,512.32C188.8,515.43 192.9,517 197,517C201.09,517 205.19,515.43 208.32,512.32C215.68,504.93 389,330.08 389,197C389,91.11 302.88,5 197,5Z"/>
    <path class="st0" d="M197,261C161.7,261 133,232.29 133,197C133,161.7 161.7,133 197,133C232.29,133 261,161.7 261,197C261,232.29 232.29,261 197,261M197,101C144.07,101 101,144.07 101,197C101,249.92 144.07,293 197,293C249.92,293 293,249.92 293,197C293,144.07 249.92,101 197,101"/>
    <path class="st1" d="M197,261C161.7,261 133,232.29 133,197C133,161.7 161.7,133 197,133C232.29,133 261,161.7 261,197C261,232.29 232.29,261 197,261ZM197,101C144.07,101 101,144.07 101,197C101,249.92 144.07,293 197,293C249.92,293 293,249.92 293,197C293,144.07 249.92,101 197,101Z"/>
</svg>