<svg xmlns="http://www.w3.org/2000/svg"
     xmlns:xlink="http://www.w3.org/1999/xlink"
     width="29px" height="39px"  viewBox="0 0 29 39">
    <path fill-rule="evenodd"  fill="#a2a2a2"
          d="M14.999878,1.9995117 C7.8303833,1.9995117 1.9998474,8.054199 1.9998474,15.5 C1.9998474,24.857422 13.734497,37.151367 14.23291,37.671387 C14.44519,37.88965 14.722595,37.999023 14.999878,37.999023 C15.277161,37.999023 15.554565,37.88965 15.766846,37.671387 C16.265259,37.151367 27.999908,24.857422 27.999908,15.5 C27.999908,8.054199 22.169373,1.9995117 14.999878,1.9995117 ZM14.999878,35.248047 C12.412933,32.37256 4.166565,22.64746 4.166565,15.5 C4.166565,9.295898 9.026398,4.2495117 14.999878,4.2495117 C20.973358,4.2495117 25.83319,9.295898 25.83319,15.5 C25.83319,22.641602 17.586914,32.37256 14.999878,35.248047 ZM14.999878,8.749512 C11.41626,8.749512 8.499878,11.777832 8.499878,15.5 C8.499878,19.221191 11.41626,22.249512 14.999878,22.249512 C18.583588,22.249512 21.499878,19.221191 21.499878,15.5 C21.499878,11.777832 18.583588,8.749512 14.999878,8.749512 ZM14.999878,20.0 C12.610016,20.0 10.666565,17.981445 10.666565,15.5 C10.666565,13.018066 12.610016,10.999023 14.999878,10.999023 C17.38974,10.999023 19.33319,13.018066 19.33319,15.5 C19.33319,17.981445 17.38974,20.0 14.999878,20.0 Z"/>
</svg>