<svg xmlns="http://www.w3.org/2000/svg"
     xmlns:xlink="http://www.w3.org/1999/xlink"
     width="475px" height="199px" viewBox="0 0 475 199">
    <path fill-rule="evenodd" fill="#ffffff"
          d="M24.529602,159.11029 C24.529602,159.11029 4.1574707,159.11029 4.1574707,159.11029 C4.1574707,159.11029 4.1574707,126.51195 4.1574707,126.51195 C4.1574707,126.51195 7.802124,126.51195 7.802124,126.51195 C7.802124,126.51195 7.802124,155.71136 7.802124,155.71136 C7.802124,155.71136 24.529602,155.71136 24.529602,155.71136 C24.529602,155.71136 24.529602,159.11029 24.529602,159.11029 ZM39.808716,131.05254 C43.048645,127.808105 46.973267,126.1859 51.58423,126.1859 C56.19391,126.1859 60.127014,127.808105 63.382812,131.05254 C66.637634,134.29602 68.265564,138.21674 68.265564,142.81042 C68.265564,147.40646 66.637634,151.32574 63.382812,154.5697 C60.127014,157.8151 56.19391,159.43588 51.58423,159.43588 C46.973267,159.43588 43.048645,157.8151 39.808716,154.5697 C36.568665,151.32574 34.9494,147.40646 34.9494,142.81042 C34.9494,138.21674 36.568665,134.29602 39.808716,131.05254 ZM60.836304,133.38136 C58.312622,130.85114 55.22882,129.58624 51.58423,129.58624 C47.939697,129.58624 44.8631,130.85114 42.355347,133.38136 C39.847595,135.9116 38.59369,139.05414 38.59369,142.81042 C38.59369,146.56808 39.847595,149.71158 42.355347,152.24136 C44.8631,154.77255 47.939697,156.03647 51.58423,156.03647 C55.22882,156.03647 58.312622,154.77255 60.836304,152.24136 C63.35974,149.71158 64.62097,146.56808 64.62097,142.81042 C64.62097,139.05414 63.35974,135.9116 60.836304,133.38136 ZM114.99237,159.11029 C114.99237,159.11029 111.348145,159.11029 111.348145,159.11029 C111.348145,159.11029 111.348145,133.49701 111.348145,133.49701 C111.348145,133.49701 99.15192,148.95807 99.15192,148.95807 C99.15192,148.95807 86.956055,133.49701 86.956055,133.49701 C86.956055,133.49701 86.956055,159.11029 86.956055,159.11029 C86.956055,159.11029 83.311584,159.11029 83.311584,159.11029 C83.311584,159.11029 83.311584,126.51195 83.311584,126.51195 C83.311584,126.51195 85.36731,126.51195 85.36731,126.51195 C85.36731,126.51195 99.15192,144.02222 99.15192,144.02222 C99.15192,144.02222 112.93689,126.51195 112.93689,126.51195 C112.93689,126.51195 114.99237,126.51195 114.99237,126.51195 C114.99237,126.51195 114.99237,159.11029 114.99237,159.11029 ZM135.31848,131.05254 C138.55713,127.808105 142.48303,126.1859 147.094,126.1859 C151.70343,126.1859 155.63678,127.808105 158.89136,131.05254 C162.14624,134.29602 163.77509,138.21674 163.77509,142.81042 C163.77509,147.40646 162.14624,151.32574 158.89136,154.5697 C155.63678,157.8151 151.70343,159.43588 147.094,159.43588 C142.48303,159.43588 138.55713,157.8151 135.31848,154.5697 C132.07843,151.32574 130.45886,147.40646 130.45886,142.81042 C130.45886,138.21674 132.07843,134.29602 135.31848,131.05254 ZM156.34491,133.38136 C153.82239,130.85114 150.73859,129.58624 147.094,129.58624 C143.44824,129.58624 140.37158,130.85114 137.86487,133.38136 C135.35712,135.9116 134.10345,139.05414 134.10345,142.81042 C134.10345,146.56808 135.35712,149.71158 137.86487,152.24136 C140.37158,154.77255 143.44824,156.03647 147.094,156.03647 C150.73859,156.03647 153.82239,154.77255 156.34491,152.24136 C158.86835,149.71158 160.1305,146.56808 160.1305,142.81042 C160.1305,139.05414 158.86835,135.9116 156.34491,133.38136 ZM203.58588,159.11029 C203.58588,159.11029 201.57666,159.11029 201.57666,159.11029 C201.57666,159.11029 182.46558,133.63728 182.46558,133.63728 C182.46558,133.63728 182.46558,159.11029 182.46558,159.11029 C182.46558,159.11029 178.82135,159.11029 178.82135,159.11029 C178.82135,159.11029 178.82135,126.51195 178.82135,126.51195 C178.82135,126.51195 180.87683,126.51195 180.87683,126.51195 C180.87683,126.51195 199.94128,151.9859 199.94128,151.9859 C199.94128,151.9859 199.94128,126.51195 199.94128,126.51195 C199.94128,126.51195 203.58588,126.51195 203.58588,126.51195 C203.58588,126.51195 203.58588,159.11029 203.58588,159.11029 ZM223.49036,131.05254 C226.73022,127.808105 230.65509,126.1859 235.26587,126.1859 C239.87567,126.1859 243.80878,127.808105 247.06464,131.05254 C250.31921,134.29602 251.94702,138.21674 251.94702,142.81042 C251.94702,147.40646 250.31921,151.32574 247.06464,154.5697 C243.80878,157.8151 239.87567,159.43588 235.26587,159.43588 C230.65509,159.43588 226.73022,157.8151 223.49036,154.5697 C220.25043,151.32574 218.63086,147.40646 218.63086,142.81042 C218.63086,138.21674 220.25043,134.29602 223.49036,131.05254 ZM244.518,133.38136 C241.99445,130.85114 238.91052,129.58624 235.26587,129.58624 C231.62128,129.58624 228.54456,130.85114 226.03705,133.38136 C223.52942,135.9116 222.27545,139.05414 222.27545,142.81042 C222.27545,146.56808 223.52942,149.71158 226.03705,152.24136 C228.54456,154.77255 231.62128,156.03647 235.26587,156.03647 C238.91052,156.03647 241.99445,154.77255 244.518,152.24136 C247.04047,149.71158 248.3028,146.56808 248.3028,142.81042 C248.3028,139.05414 247.04047,135.9116 244.518,133.38136 ZM276.8521,126.1859 C276.8521,126.1859 277.36633,126.1859 277.36633,126.1859 C279.67163,126.1859 281.87573,126.66786 283.97778,127.62944 C286.081,128.59291 287.81738,129.92699 289.1883,131.63498 C289.1883,131.63498 286.8048,133.77708 286.8048,133.77708 C285.68378,132.4724 284.26562,131.44778 282.55334,130.70279 C280.8391,129.95732 279.11005,129.58624 277.36633,129.58624 C277.36633,129.58624 276.8521,129.58624 276.8521,129.58624 C274.92084,129.58624 273.1687,130.08292 271.5954,131.07623 C270.0224,132.06909 269.23645,133.46667 269.23645,135.26709 C269.23645,136.66418 269.8045,137.74329 270.94122,138.50299 C272.078,139.26456 273.8462,139.80008 276.24536,140.11005 C276.24536,140.11005 279.79614,140.5759 279.79614,140.5759 C283.25403,141.01141 285.87042,141.95026 287.64575,143.39334 C289.42206,144.8364 290.3092,146.98703 290.3092,149.84286 C290.3092,152.69962 289.14923,155.00476 286.82794,156.75824 C284.508,158.5127 281.64935,159.40555 278.2547,159.43588 C278.2547,159.43588 277.9743,159.43588 277.9743,159.43588 C274.8271,159.43588 272.1098,158.7923 269.8203,157.50323 C267.53058,156.2161 265.8553,154.50052 264.79633,152.3584 C264.79633,152.3584 267.17993,150.16843 267.17993,150.16843 C267.95844,151.90817 269.2829,153.31998 271.15192,154.40668 C273.02112,155.49384 275.29364,156.03647 277.9743,156.03647 C277.9743,156.03647 278.2547,156.03647 278.2547,156.03647 C280.6526,156.03647 282.65338,155.47867 284.25818,154.36118 C285.8631,153.24225 286.6646,151.73853 286.6646,149.84286 C286.6646,148.07373 286.05786,146.73016 284.8432,145.81552 C283.62805,144.89896 281.80524,144.27008 279.37567,143.92886 C279.37567,143.92886 275.8249,143.51038 275.8249,143.51038 C272.42896,143.07532 269.87384,142.20569 268.16168,140.90195 C266.4475,139.59726 265.59082,137.75134 265.59082,135.35997 C265.59082,132.62831 266.68976,130.42413 268.88568,128.74693 C271.0813,127.07117 273.73657,126.21718 276.8521,126.1859 ZM308.01794,131.05254 C311.2578,127.808105 315.18274,126.1859 319.79346,126.1859 C324.40295,126.1859 328.33606,127.808105 331.59204,131.05254 C334.84692,134.29602 336.47473,138.21674 336.47473,142.81042 C336.47473,147.40646 334.84692,151.32574 331.59204,154.5697 C328.33606,157.8151 324.40295,159.43588 319.79346,159.43588 C315.18274,159.43588 311.2578,157.8151 308.01794,154.5697 C304.7777,151.32574 303.15857,147.40646 303.15857,142.81042 C303.15857,138.21674 304.7777,134.29602 308.01794,131.05254 ZM329.0454,133.38136 C326.52197,130.85114 323.438,129.58624 319.79346,129.58624 C316.1488,129.58624 313.07227,130.85114 310.56445,133.38136 C308.0569,135.9116 306.80298,139.05414 306.80298,142.81042 C306.80298,146.56808 308.0569,149.71158 310.56445,152.24136 C313.07227,154.77255 316.1488,156.03647 319.79346,156.03647 C323.438,156.03647 326.52197,154.77255 329.0454,152.24136 C331.56787,149.71158 332.83008,146.56808 332.83008,142.81042 C332.83008,139.05414 331.56787,135.9116 329.0454,133.38136 ZM362.87598,159.11029 C362.87598,159.11029 360.86646,159.11029 360.86646,159.11029 C360.86646,159.11029 347.12915,126.51195 347.12915,126.51195 C347.12915,126.51195 351.14758,126.51195 351.14758,126.51195 C351.14758,126.51195 361.8485,152.3584 361.8485,152.3584 C361.8485,152.3584 372.50183,126.51195 372.50183,126.51195 C372.50183,126.51195 376.5204,126.51195 376.5204,126.51195 C376.5204,126.51195 362.87598,159.11029 362.87598,159.11029 ZM391.28528,150.44806 C391.28528,150.44806 387.73438,159.11029 387.73438,159.11029 C387.73438,159.11029 383.71582,159.11029 383.71582,159.11029 C383.71582,159.11029 397.26672,126.51195 397.26672,126.51195 C397.26672,126.51195 399.3225,126.51195 399.3225,126.51195 C399.3225,126.51195 412.8269,159.11029 412.8269,159.11029 C412.8269,159.11029 408.80847,159.11029 408.80847,159.11029 C408.80847,159.11029 405.25647,150.44806 405.25647,150.44806 C405.25647,150.44806 391.28528,150.44806 391.28528,150.44806 ZM398.29395,133.21786 C398.29395,133.21786 392.59375,147.04913 392.59375,147.04913 C392.59375,147.04913 403.99524,147.04913 403.99524,147.04913 C403.99524,147.04913 398.29395,133.21786 398.29395,133.21786 ZM434.32117,159.11029 C434.32117,159.11029 430.67664,159.11029 430.67664,159.11029 C430.67664,159.11029 430.67664,133.86998 430.67664,133.86998 C430.67664,133.86998 426.56433,138.80582 426.56433,138.80582 C426.56433,138.80582 424.13452,136.94284 424.13452,136.94284 C424.13452,136.94284 432.26465,127.21097 432.26465,127.21097 C432.26465,127.21097 434.32117,127.21097 434.32117,127.21097 C434.32117,127.21097 434.32117,159.11029 434.32117,159.11029 ZM470.16003,152.77689 C470.16003,152.77689 470.16003,159.11029 470.16003,159.11029 C470.16003,159.11029 466.51538,159.11029 466.51538,159.11029 C466.51538,159.11029 466.51538,152.77689 466.51538,152.77689 C466.51538,152.77689 448.75928,152.77689 448.75928,152.77689 C448.75928,152.77689 448.75928,150.72815 448.75928,150.72815 C448.75928,150.72815 468.10425,127.21097 468.10425,127.21097 C468.10425,127.21097 470.16003,127.21097 470.16003,127.21097 C470.16003,127.21097 470.16003,149.37701 470.16003,149.37701 C470.16003,149.37701 473.8518,149.37701 473.8518,149.37701 C473.8518,149.37701 473.8518,152.77689 473.8518,152.77689 C473.8518,152.77689 470.16003,152.77689 470.16003,152.77689 ZM466.51538,133.45009 C466.51538,133.45009 453.24475,149.37701 453.24475,149.37701 C453.24475,149.37701 466.51538,149.37701 466.51538,149.37701 C466.51538,149.37701 466.51538,133.45009 466.51538,133.45009 ZM14.957397,197.82358 C14.957397,197.82358 13.046448,197.82358 13.046448,197.82358 C13.046448,197.82358 13.046448,190.05847 13.046448,190.05847 C13.046448,190.05847 3.9093018,190.05847 3.9093018,190.05847 C3.9093018,190.05847 3.9093018,197.82358 3.9093018,197.82358 C3.9093018,197.82358 1.9987793,197.82358 1.9987793,197.82358 C1.9987793,197.82358 1.9987793,180.73367 1.9987793,180.73367 C1.9987793,180.73367 3.9093018,180.73367 3.9093018,180.73367 C3.9093018,180.73367 3.9093018,188.27701 3.9093018,188.27701 C3.9093018,188.27701 13.046448,188.27701 13.046448,188.27701 C13.046448,188.27701 13.046448,180.73367 13.046448,180.73367 C13.046448,180.73367 14.957397,180.73367 14.957397,180.73367 C14.957397,180.73367 14.957397,197.82358 14.957397,197.82358 ZM45.96997,193.28159 C45.96997,193.28159 44.108337,197.82358 44.108337,197.82358 C44.108337,197.82358 42.000916,197.82358 42.000916,197.82358 C42.000916,197.82358 49.10498,180.73367 49.10498,180.73367 C49.10498,180.73367 50.18335,180.73367 50.18335,180.73367 C50.18335,180.73367 57.26233,197.82358 57.26233,197.82358 C57.26233,197.82358 55.156006,197.82358 55.156006,197.82358 C55.156006,197.82358 53.294434,193.28159 53.294434,193.28159 C53.294434,193.28159 45.96997,193.28159 45.96997,193.28159 ZM49.643616,184.24872 C49.643616,184.24872 46.655273,191.50012 46.655273,191.50012 C46.655273,191.50012 52.632812,191.50012 52.632812,191.50012 C52.632812,191.50012 49.643616,184.24872 49.643616,184.24872 ZM88.02954,196.04071 C88.02954,196.04071 90.039,196.04071 90.039,196.04071 C90.039,196.04071 90.039,197.82358 90.039,197.82358 C90.039,197.82358 84.11047,197.82358 84.11047,197.82358 C84.11047,197.82358 84.11047,196.04071 84.11047,196.04071 C84.11047,196.04071 86.11896,196.04071 86.11896,196.04071 C86.11896,196.04071 86.11896,182.51562 86.11896,182.51562 C86.11896,182.51562 84.11047,182.51562 84.11047,182.51562 C84.11047,182.51562 84.11047,180.73367 84.11047,180.73367 C84.11047,180.73367 90.039,180.73367 90.039,180.73367 C90.039,180.73367 90.039,182.51562 90.039,182.51562 C90.039,182.51562 88.02954,182.51562 88.02954,182.51562 C88.02954,182.51562 88.02954,196.04071 88.02954,196.04071 ZM118.84674,180.73367 C118.84674,180.73367 124.358215,180.73367 124.358215,180.73367 C126.56317,180.73367 128.34692,181.28723 129.71051,182.39288 C131.07397,183.49994 131.75635,184.99753 131.75635,186.88654 C131.75635,188.2685 131.36438,189.43289 130.5799,190.37741 C129.79578,191.3205 128.72656,191.9878 127.37134,192.37875 C128.3023,192.76974 129.24866,193.71378 130.21289,195.21088 C130.21289,195.21088 131.927,197.82358 131.927,197.82358 C131.927,197.82358 129.74689,197.82358 129.74689,197.82358 C129.74689,197.82358 128.35107,195.6507 128.35107,195.6507 C127.64911,194.57632 127.02814,193.8768 126.48932,193.5498 C125.95044,193.2247 125.20691,193.05505 124.260376,193.03845 C124.260376,193.03845 120.757324,193.03845 120.757324,193.03845 C120.757324,193.03845 120.757324,197.82358 120.757324,197.82358 C120.757324,197.82358 118.84674,197.82358 118.84674,197.82358 C118.84674,197.82358 118.84674,180.73367 118.84674,180.73367 ZM120.757324,182.51562 C120.757324,182.51562 120.757324,191.25653 120.757324,191.25653 C120.757324,191.25653 124.5047,191.25653 124.5047,191.25653 C126.08905,191.25653 127.39099,190.88876 128.41254,190.15799 C129.43286,189.42484 129.94342,188.3339 129.94342,186.88654 C129.94342,185.45389 129.43286,184.36722 128.41254,183.62695 C127.39099,182.88574 126.08905,182.51562 124.5047,182.51562 C124.5047,182.51562 120.757324,182.51562 120.757324,182.51562 ZM200.664,197.82358 C200.664,197.82358 199.29205,196.43265 199.29205,196.43265 C198.26349,197.42361 196.80963,197.92075 194.93213,197.92075 C194.93213,197.92075 194.76044,197.92075 194.76044,197.92075 C192.97998,197.90414 191.56317,197.45679 190.51068,196.57812 C189.45703,195.69904 188.93073,194.51138 188.93073,193.01382 C188.93073,191.9878 189.20319,191.1134 189.75122,190.3888 C190.29712,189.66418 191.04523,189.1315 191.9928,188.79074 C191.9928,188.79074 190.98804,187.78888 190.98804,187.78888 C190.18713,186.91025 189.78784,185.92545 189.78784,184.83447 C189.78784,183.59805 190.25262,182.5976 191.18347,181.83176 C192.11444,181.06781 193.31482,180.68393 194.78436,180.68393 C194.78436,180.68393 194.98096,180.68393 194.98096,180.68393 C196.38507,180.7005 197.56897,181.10382 198.53296,181.89243 C199.49603,182.68243 199.9776,183.72836 199.9776,185.0307 C199.9776,185.0307 199.9776,185.2738 199.9776,185.2738 C199.9776,185.2738 198.16577,185.2738 198.16577,185.2738 C198.16577,184.33072 197.8382,183.61841 197.18604,183.13739 C196.53162,182.65921 195.74854,182.41846 194.83435,182.41846 C193.93567,182.41846 193.164,182.64926 192.51898,183.11417 C191.87311,183.57718 191.55188,184.26627 191.55188,185.17667 C191.55188,185.92545 191.82849,186.59271 192.38373,187.17801 C192.38373,187.17801 199.12054,194.11188 199.12054,194.11188 C199.43042,193.57492 199.58667,192.95648 199.58667,192.2565 C199.58667,192.2565 200.98236,192.2565 200.98236,192.2565 C200.98236,193.38062 200.72852,194.39719 200.22302,195.3085 C200.22302,195.3085 202.62366,197.82358 202.62366,197.82358 C202.62366,197.82358 200.664,197.82358 200.664,197.82358 ZM194.95593,196.18762 C196.32782,196.18762 197.36499,195.81323 198.06702,195.06445 C198.06702,195.06445 192.89862,189.78976 192.89862,189.78976 C192.2456,190.01819 191.7265,190.38168 191.34277,190.87741 C190.95886,191.37454 190.7674,191.97974 190.7674,192.6958 C190.7674,193.78629 191.15558,194.64124 191.93115,195.25922 C192.70624,195.87863 193.71503,196.18762 194.95593,196.18762 ZM261.2425,180.73367 C261.2425,180.73367 267.46582,180.73367 267.46582,180.73367 C271.25354,180.73367 273.14868,182.19858 273.14868,185.12784 C273.14868,187.04816 272.2823,188.29361 270.55145,188.86276 C271.66248,189.0751 272.5235,189.55518 273.13623,190.3035 C273.74872,191.05228 274.05463,191.97974 274.05463,193.08633 C274.05463,196.24402 272.06165,197.82358 268.07703,197.82358 C268.07703,197.82358 261.2425,197.82358 261.2425,197.82358 C261.2425,197.82358 261.2425,180.73367 261.2425,180.73367 ZM263.15344,182.51562 C263.15344,182.51562 263.15344,188.15521 263.15344,188.15521 C263.15344,188.15521 267.6361,188.15521 267.6361,188.15521 C270.10217,188.15521 271.33594,187.2197 271.33594,185.34775 C271.33594,184.48569 271.07867,183.79709 270.56403,183.28479 C270.04932,182.772 269.07355,182.51562 267.6361,182.51562 C267.6361,182.51562 263.15344,182.51562 263.15344,182.51562 ZM263.15344,189.78976 C263.15344,189.78976 263.15344,196.04071 263.15344,196.04071 C263.15344,196.04071 268.42023,196.04071 268.42023,196.04071 C270.96863,196.04071 272.24164,195.0 272.24164,192.91571 C272.24164,191.95602 271.92328,191.19492 271.287,190.63333 C270.64917,190.07126 269.69452,189.78976 268.42023,189.78976 C268.42023,189.78976 263.15344,189.78976 263.15344,189.78976 ZM303.3761,188.30167 C303.3761,188.30167 311.77905,188.30167 311.77905,188.30167 C311.77905,188.30167 311.77905,190.08405 311.77905,190.08405 C311.77905,190.08405 303.3761,190.08405 303.3761,190.08405 C303.3761,190.08405 303.3761,196.04071 303.3761,196.04071 C303.3761,196.04071 312.31787,196.04071 312.31787,196.04071 C312.31787,196.04071 312.31787,197.82358 312.31787,197.82358 C312.31787,197.82358 301.4654,197.82358 301.4654,197.82358 C301.4654,197.82358 301.4654,180.73367 301.4654,180.73367 C301.4654,180.73367 312.31787,180.73367 312.31787,180.73367 C312.31787,180.73367 312.31787,182.51562 312.31787,182.51562 C312.31787,182.51562 303.3761,182.51562 303.3761,182.51562 C303.3761,182.51562 303.3761,188.30167 303.3761,188.30167 ZM342.05615,193.28159 C342.05615,193.28159 340.19458,197.82358 340.19458,197.82358 C340.19458,197.82358 338.0874,197.82358 338.0874,197.82358 C338.0874,197.82358 345.19104,180.73367 345.19104,180.73367 C345.19104,180.73367 346.2699,180.73367 346.2699,180.73367 C346.2699,180.73367 353.34875,197.82358 353.34875,197.82358 C353.34875,197.82358 351.24255,197.82358 351.24255,197.82358 C351.24255,197.82358 349.38074,193.28159 349.38074,193.28159 C349.38074,193.28159 342.05615,193.28159 342.05615,193.28159 ZM345.73108,184.24872 C345.73108,184.24872 342.7417,191.50012 342.7417,191.50012 C342.7417,191.50012 348.71924,191.50012 348.71924,191.50012 C348.71924,191.50012 345.73108,184.24872 345.73108,184.24872 ZM394.03833,180.73367 C394.03833,180.73367 394.03833,190.47458 394.03833,190.47458 C394.03833,192.76974 393.39368,194.59622 392.10266,195.95541 C390.81323,197.31412 389.13123,197.99466 387.0575,197.99466 C384.9668,197.99466 383.28064,197.31982 381.9984,195.96774 C380.71582,194.61707 380.0752,192.78635 380.0752,190.47458 C380.0752,190.47458 380.0752,180.73367 380.0752,180.73367 C380.0752,180.73367 381.98584,180.73367 381.98584,180.73367 C381.98584,180.73367 381.98584,190.42575 381.98584,190.42575 C381.98584,192.26501 382.43933,193.68915 383.34644,194.69812 C384.2522,195.70709 385.4889,196.21228 387.0575,196.21228 C388.625,196.21228 389.86145,195.70709 390.76843,194.69812 C391.67444,193.68915 392.12805,192.26501 392.12805,190.42575 C392.12805,190.42575 392.12805,180.73367 392.12805,180.73367 C392.12805,180.73367 394.03833,180.73367 394.03833,180.73367 ZM428.1859,182.51562 C428.1859,182.51562 428.1859,197.82358 428.1859,197.82358 C428.1859,197.82358 426.27527,197.82358 426.27527,197.82358 C426.27527,197.82358 426.27527,182.51562 426.27527,182.51562 C426.27527,182.51562 420.95935,182.51562 420.95935,182.51562 C420.95935,182.51562 420.95935,180.73367 420.95935,180.73367 C420.95935,180.73367 433.47705,180.73367 433.47705,180.73367 C433.47705,180.73367 433.47705,182.51562 433.47705,182.51562 C433.47705,182.51562 428.1859,182.51562 428.1859,182.51562 ZM467.453,197.82358 C467.453,197.82358 465.54224,197.82358 465.54224,197.82358 C465.54224,197.82358 465.54224,191.96457 465.54224,191.96457 C465.54224,191.96457 459.02612,180.73367 459.02612,180.73367 C459.02612,180.73367 461.2069,180.73367 461.2069,180.73367 C461.2069,180.73367 466.52197,189.66891 466.52197,189.66891 C466.52197,189.66891 471.81396,180.73367 471.81396,180.73367 C471.81396,180.73367 473.99414,180.73367 473.99414,180.73367 C473.99414,180.73367 467.453,191.96457 467.453,191.96457 C467.453,191.96457 467.453,197.82358 467.453,197.82358 ZM288.50836,12.723175 C288.13324,12.723175 287.5075,12.847336 287.25684,13.2221985 C284.37866,15.592255 278.24786,19.332886 274.3684,19.332886 C273.7359,19.332886 273.05566,19.583588 272.73364,19.986893 C272.063,18.824844 268.9248,17.087463 267.1117,17.087463 C260.97998,17.087463 237.95721,44.523438 234.078,49.76117 C239.8338,34.421906 255.35004,9.355988 258.10266,6.238571 C258.47797,5.9892883 258.60266,5.614891 258.60266,5.365616 C258.10266,3.4945908 254.47375,1.998436 252.72223,1.998436 C244.33899,3.4945908 212.18054,47.51622 204.92328,66.720276 C204.60156,67.56195 204.35779,68.35576 204.16876,69.11212 C202.15674,68.9292 200.01843,68.840576 197.79108,68.840576 C192.91107,68.840576 187.90613,69.214966 182.77576,69.714005 C187.65619,62.355972 193.03638,53.50226 197.54077,45.770782 C211.05487,40.532593 226.19519,24.819412 225.3194,11.351654 C225.19415,8.483505 222.8164,6.612961 220.0639,6.612961 C213.55725,6.612961 208.30237,15.965698 205.42383,20.330475 C198.54205,31.054733 198.54205,31.17984 192.0354,42.02922 C189.28271,43.026337 186.6549,43.400726 184.15259,43.400726 C179.77258,43.400726 175.89374,41.90506 173.39124,38.78621 C172.2655,37.290527 173.64172,34.67119 172.89081,33.79918 C172.7655,33.549423 172.51544,33.423843 172.2655,33.423843 C170.13824,33.423843 169.0119,48.388702 184.15259,48.388702 C185.40344,48.388702 186.90509,48.26454 188.40643,48.01526 C184.02728,55.24817 178.27167,64.22699 173.39124,71.33479 C167.26038,72.457504 161.37897,74.078766 156.99976,75.57492 C155.12305,76.07443 154.62225,79.44066 155.37311,80.5629 C155.99872,80.313614 156.87445,80.18945 157.87537,79.93875 C159.2522,83.6808 161.1289,86.548935 164.75726,86.548935 C170.51349,86.548935 175.018,80.438736 178.02094,76.447876 C183.52667,75.94885 189.28271,75.70004 194.53784,75.70004 C197.96082,75.70004 201.23438,75.81947 204.20148,76.0768 C205.31335,79.40228 207.82812,80.543945 207.67645,79.93875 C207.51544,79.01224 207.59406,77.84735 207.87274,76.491486 C213.51776,77.297134 217.49219,78.75917 218.31226,81.06241 C218.31226,81.31122 218.43713,81.81024 218.56244,81.81024 C218.68762,81.81024 218.68762,81.81024 218.81238,81.68608 C219.18823,81.06241 219.18823,80.313614 219.3133,79.69089 C220.20135,74.541794 216.34607,71.522934 210.03992,70.02774 C216.65253,54.505066 235.15125,28.369522 246.34094,14.968582 C242.7121,19.956558 226.94592,49.262604 228.19666,55.621613 C228.57257,58.11679 231.19983,59.8627 232.45142,59.8627 C232.9519,59.8627 233.32715,59.612473 233.32715,59.113907 C235.7049,54.87378 261.35614,27.813614 261.98187,27.438278 C255.85016,38.28859 246.34094,61.483017 248.0924,70.71112 C248.96777,75.70004 252.72223,76.94644 254.97388,76.94644 C256.3512,76.94644 257.22632,76.447876 256.22516,76.07443 C254.59851,75.201004 254.59851,73.82854 254.59851,72.08359 C254.22363,61.491547 263.46863,34.340866 272.59546,20.737564 C272.60535,20.768845 272.60315,20.797287 272.61713,20.828568 C273.36737,22.575897 275.11902,23.447906 277.37158,23.447906 C278.74792,23.447906 280.12488,23.073975 281.62616,22.575897 C274.74377,34.795837 267.98706,49.511887 263.73248,62.23181 C261.23047,69.714005 262.73157,73.20581 264.1089,73.20581 C264.4839,73.20581 264.98413,72.83142 265.23462,71.83383 C269.2386,56.993607 285.3797,29.558578 294.01355,16.09082 C294.3888,15.716431 290.63513,12.723175 288.50836,12.723175 ZM220.43927,11.850693 C226.57056,11.850693 213.30719,29.558578 201.92035,37.664444 C204.04742,33.549423 216.81036,11.850693 220.43927,11.850693 ZM164.25739,81.81024 C164.13214,81.93489 163.88153,81.93489 163.75647,81.93489 C162.50525,81.93489 161.37897,80.5629 160.7533,79.06674 C163.25623,78.56818 165.88367,78.19379 168.76129,77.570114 C166.7594,80.06529 165.25824,81.560486 164.25739,81.81024 ZM324.41858,12.723175 C323.91846,12.474365 323.5432,12.349716 323.1681,12.349716 C322.66687,12.349716 322.29175,12.474365 321.9165,12.723175 C310.53015,23.94693 295.5147,41.530655 282.12524,49.636047 C281.24988,50.00998 280.37378,50.383896 279.99835,51.381485 C279.99835,51.381485 280.1233,52.62883 280.1233,52.62883 C280.99945,54.12593 281.50024,55.747208 282.75098,55.747208 C282.87677,55.747208 282.87677,55.747208 283.12738,55.621613 C285.75403,55.123535 294.63843,53.626434 302.6466,52.50467 C301.2704,55.747208 300.01874,59.113907 299.01782,62.23181 C296.39014,69.714005 297.8921,73.20581 299.26813,73.20581 C299.8941,73.20581 300.26917,72.83142 300.39423,71.83383 C301.896,66.346344 305.14954,59.238556 308.77747,51.631714 C311.15564,51.381485 313.2827,51.257797 315.4093,51.257797 C315.53516,51.257797 316.03516,49.13797 313.53296,48.26454 C312.78162,48.01526 312.031,47.76645 310.90527,47.64087 C317.03613,35.919006 324.41858,23.82277 329.29895,16.09082 C329.54944,15.716431 326.54626,13.097565 324.41858,12.723175 ZM304.52393,47.64087 C300.89502,48.01526 296.0146,48.514297 289.88373,49.38678 C298.2672,42.901703 307.15186,34.421906 314.90942,26.192352 C311.2804,33.0504 307.7765,40.407944 304.52393,47.64087 ZM401.28564,96.55 C401.28564,96.55 400.92566,96.79785 400.92566,96.79785 C400.92566,96.79785 401.61682,96.82677 401.61682,96.82677 C401.78857,96.776535 401.72864,96.584595 401.28564,96.55 ZM398.7008,96.00026 C398.54907,95.90973 398.71802,95.85666 398.76392,95.807846 C398.2256,95.86946 397.5946,96.02963 397.88586,96.355225 C398.4386,96.150955 398.5431,96.288864 399.14514,96.0358 C399.58875,96.071335 399.89392,96.25333 399.8025,96.351425 C399.96985,96.299774 400.47144,96.5244 400.73767,96.37512 C400.20642,96.05475 399.484,95.930115 398.7008,96.00026 ZM328.6942,91.52649 C328.89893,91.51938 328.98462,91.48952 328.995,91.46251 C328.8048,91.48146 328.64868,91.49994 328.6942,91.52649 ZM324.10522,91.1862 C324.20386,91.19331 324.28674,91.199005 324.37573,91.20564 C324.27283,91.17815 324.16882,91.16347 324.10522,91.1862 ZM355.57434,91.94353 C355.57434,91.94353 354.85852,91.83263 354.85852,91.83263 C354.8058,91.92978 355.22485,91.91463 355.57434,91.94353 ZM392.75037,95.68605 C392.901,95.69031 393.02832,95.67799 393.14648,95.65524 C393.0227,95.65097 392.90332,95.64624 392.7798,95.64244 C392.77124,95.65761 392.7638,95.67088 392.75037,95.68605 ZM367.43494,92.10893 C367.43494,92.10893 367.65332,92.11841 367.65332,92.11841 C367.71936,92.086655 367.78137,92.04874 367.84082,92.00514 C367.84082,92.00514 367.43494,92.10893 367.43494,92.10893 ZM376.14905,92.92453 C376.27258,92.82738 376.42773,92.788055 376.60962,92.78047 C376.6162,92.73213 376.5935,92.67241 376.53003,92.59422 C376.3252,92.56909 376.23547,92.81885 376.14905,92.92453 ZM390.8601,94.407425 C390.8601,94.407425 391.11853,94.403625 391.11853,94.403625 C391.05103,94.4041 390.93872,94.406006 390.8601,94.407425 ZM106.77698,100.46123 C106.78424,100.44275 106.773926,100.43138 106.776306,100.41527 C106.72333,100.4418 106.70697,100.459335 106.77698,100.46123 ZM96.24133,99.03 C96.24133,99.03 96.38757,99.02005 96.38757,99.02005 C96.40491,98.97266 96.42236,98.92479 96.42401,98.87787 C96.42401,98.87787 96.24133,99.03 96.24133,99.03 ZM315.70483,90.87154 C315.72144,90.8739 315.72693,90.87485 315.7422,90.87627 C315.96313,90.84689 315.838,90.85257 315.70483,90.87154 ZM238.60461,92.326935 C239.48462,92.52881 237.19263,92.66246 238.5149,92.87666 C238.38934,92.78047 239.69751,92.442566 238.60461,92.326935 ZM392.5216,95.62396 C392.5216,95.62396 392.15283,95.58037 392.15283,95.58037 C392.31958,95.60974 392.43286,95.62254 392.5216,95.62396 ZM296.54913,91.25729 C296.54236,91.23123 296.49738,91.19948 296.3509,91.14783 C296.391,91.19237 296.46844,91.22601 296.54913,91.25729 ZM288.86902,91.58714 C288.6748,91.57008 288.60864,91.535965 288.34418,91.573395 C288.3689,91.5862 288.39337,91.59567 288.42517,91.60373 C288.5205,91.56677 288.64764,91.549225 288.86902,91.58714 ZM281.07843,91.69566 C281.12006,91.7151 281.17493,91.72838 281.22296,91.744965 C281.30023,91.74022 281.39014,91.73358 281.46973,91.72789 C281.46973,91.72789 281.07843,91.69566 281.07843,91.69566 ZM130.49011,99.64372 C130.31592,99.57974 130.20557,99.50629 130.11884,99.431885 C130.24829,99.60724 129.10681,99.72856 130.49011,99.64372 ZM392.76514,95.54245 C392.71167,95.601685 392.64185,95.62491 392.5216,95.62396 C392.61096,95.63013 392.69617,95.63629 392.7798,95.64244 C392.80725,95.607376 392.81677,95.57231 392.76514,95.54245 ZM288.5775,93.6084 C288.5775,93.6084 287.34015,93.58707 287.34015,93.58707 C287.68622,93.60745 288.136,93.61456 288.5775,93.6084 ZM283.67017,93.67616 C283.44794,93.588974 283.21307,93.53967 282.97095,93.50888 C282.9201,93.52925 282.86163,93.54726 282.82837,93.576645 C282.82837,93.576645 283.67017,93.67616 283.67017,93.67616 ZM190.23224,96.39407 C190.15546,96.40971 190.07068,96.42868 189.96948,96.45427 C190.05383,96.43294 190.14368,96.41304 190.23224,96.39407 ZM394.68323,95.87372 C395.57227,95.92917 396.98218,96.05618 397.2904,95.85286 C397.2904,95.85286 396.73804,95.68652 396.73804,95.68652 C397.06104,95.72064 396.87256,95.918274 396.62915,95.92917 C395.84778,96.01305 395.5536,95.69174 395.52307,95.59743 C395.52307,95.59743 396.08936,95.62018 396.08936,95.62018 C395.588,95.02968 393.83582,95.37137 392.71387,95.2126 C392.71387,95.2126 393.23303,94.89555 393.23303,94.89555 C393.23303,94.89555 392.03613,95.0638 392.03613,95.0638 C391.8031,94.93489 391.66077,94.70409 392.2251,94.71736 C391.43945,94.43207 391.49255,94.76192 390.823,94.469025 C390.75037,94.42685 390.7871,94.41359 390.8601,94.407425 C390.8601,94.407425 390.0559,94.42116 390.0559,94.42116 C390.22046,94.36192 389.95605,94.13966 390.43542,94.253876 C389.04077,93.856735 388.11084,94.28041 387.60803,93.93208 C387.60803,93.93208 387.7296,93.922134 387.7296,93.922134 C385.74304,93.8354 387.5083,94.17709 385.99622,94.342026 C385.99622,94.342026 385.06934,93.55817 385.06934,93.55817 C385.06934,93.55817 384.84778,93.816925 384.84778,93.816925 C384.64465,93.78801 384.24377,93.72925 384.32922,93.62593 C383.5525,93.744415 384.44678,93.75815 383.98926,93.895584 C383.0321,93.553894 381.2766,93.75673 381.09314,93.303665 C380.72278,93.48566 382.0182,93.54111 380.95764,93.60365 C380.69873,93.105576 379.73938,93.58801 378.8606,93.298935 C379.1554,93.075714 379.9956,93.27382 379.11487,92.98378 C378.54077,93.35628 377.3744,92.74681 376.60962,92.78047 C376.55017,93.10794 374.95203,92.80701 373.67383,92.8307 C373.76184,92.71649 371.29163,92.51033 370.11426,92.324554 C370.11426,92.324554 370.1521,92.27101 370.1521,92.27101 C369.90503,92.58853 368.68762,92.4601 367.79517,92.49185 C367.83984,92.29375 368.00342,92.2222 368.48975,92.155365 C368.48975,92.155365 367.65332,92.11841 367.65332,92.11841 C367.4508,92.216034 367.1875,92.2601 366.64343,92.27385 C366.64343,92.27385 366.86523,92.03404 366.86523,92.03404 C365.7506,91.993286 364.61108,92.22409 363.18518,92.00845 C363.0963,92.238785 364.2981,92.69943 362.7799,92.79848 C362.7284,92.67052 362.68054,92.452515 363.0785,92.41603 C362.94824,92.42787 362.6117,92.50369 362.35266,92.4402 C362.35266,92.4402 362.96497,92.2511 362.96497,92.2511 C362.31653,92.133575 362.61768,92.41554 362.09717,92.37622 C362.1139,92.19707 361.71606,92.23404 361.79578,92.09424 C361.92957,92.081436 362.24792,92.18523 362.4502,92.12172 C361.86328,92.06818 361.15625,91.934525 360.92554,91.79045 C360.9734,91.894714 360.91748,92.03262 360.48596,92.04352 C359.3723,92.02457 360.11194,91.81604 359.4651,91.705154 C359.19165,91.822205 358.48486,91.672455 358.45862,91.93974 C358.1328,91.929306 358.07617,91.801834 357.9524,91.725525 C357.37268,91.82315 355.25928,91.69093 355.90186,91.99187 C355.90186,91.99187 356.0492,92.014145 356.0492,92.014145 C356.02124,92.017456 355.989,92.02078 355.9547,92.02457 C354.0609,92.24684 352.03564,91.78476 350.15942,91.87244 C350.15942,91.87244 350.16406,91.78334 350.16406,91.78334 C349.04382,91.865814 347.67358,91.80751 346.8728,91.99187 C346.542,91.98761 346.09387,91.81842 346.2367,91.71321 C345.38098,91.7715 345.28418,91.86818 344.05054,91.709885 C344.91162,91.56061 343.75537,91.56677 344.93262,91.60278 C343.8225,91.51416 343.5719,91.37056 342.37708,91.60562 C342.78503,91.37862 341.54297,91.30943 341.01428,91.373886 C341.01428,91.373886 341.7915,91.54497 341.7915,91.54497 C341.19775,91.573395 340.67847,91.54828 340.15125,91.526 C340.15125,91.526 340.4381,91.224594 340.4381,91.224594 C338.16663,90.84451 336.33557,91.82648 334.6079,91.20801 C334.00586,91.4189 335.8418,91.36014 335.30322,91.60657 C334.2578,91.563446 333.17004,91.12602 332.84253,91.1246 C331.41064,90.95352 331.50476,91.563446 330.00647,91.44449 C330.19788,91.553024 330.37805,91.84259 329.25818,91.94116 C328.21204,91.89851 327.9729,91.48477 328.63367,91.40042 C328.88464,91.39189 329.0056,91.42554 328.995,91.46251 C329.333,91.42412 329.77686,91.37862 329.3628,91.26109 C329.3628,91.26109 329.22656,91.368195 329.22656,91.368195 C328.70776,91.25682 327.2682,91.26488 327.60657,91.088104 C326.81567,91.18953 327.2683,91.26488 327.85376,91.32269 C326.5121,91.16347 325.7572,91.31038 324.37573,91.20564 C324.59534,91.26488 324.79773,91.39189 324.5791,91.39047 C322.5531,91.26062 323.6869,91.59662 322.3141,91.64638 C321.5343,91.48288 322.59363,91.25304 321.2118,91.39378 C320.36768,91.283356 321.0326,91.107544 321.36804,91.01845 C320.109,91.22934 319.01514,90.88574 318.29602,90.848785 C318.29602,90.848785 318.9591,90.760635 318.9591,90.760635 C318.56226,90.81276 318.23743,90.81181 317.90662,90.81181 C317.90662,90.81181 318.28577,91.02745 318.28577,91.02745 C317.89636,90.99048 317.56653,90.98906 317.57373,90.90044 C317.17273,91.042145 317.8816,91.25871 317.0857,91.45351 C316.5664,91.3445 315.50525,91.573395 315.32507,91.287155 C316.95813,91.38194 315.14392,90.99948 316.52588,90.95114 C316.25928,90.98622 315.9342,90.9848 315.54346,90.94736 C315.48474,90.9156 315.5985,90.88812 315.70483,90.87154 C314.1416,90.618454 314.98755,91.19664 313.3684,91.19284 C313.57336,91.03076 312.99182,90.88812 312.72778,90.92508 C313.38025,90.92461 313.04114,91.19237 312.44263,91.31891 C311.40405,91.199005 311.31458,91.4189 310.771,91.40706 C310.771,91.40706 311.39172,91.46298 311.39172,91.46298 C311.18237,91.625534 310.6631,91.607056 309.9397,91.66202 C309.8772,91.53691 310.59644,91.571976 310.338,91.51796 C309.53577,91.806564 308.52063,91.23407 307.40125,91.432175 C306.8817,91.32602 307.34924,91.12933 306.89294,91.05731 C305.63818,91.27388 305.5315,90.84451 304.21228,91.024124 C304.59424,91.23976 304.6604,91.1862 303.7323,91.40279 C303.7323,91.40279 305.90137,91.23787 305.90137,91.23787 C305.90137,91.23787 304.51074,91.561554 304.51074,91.561554 C305.16565,91.56061 305.8916,91.416534 306.28455,91.4516 C305.62195,91.632645 305.68982,91.57814 306.0044,91.756805 C305.10632,91.43596 304.2295,91.95633 303.19202,91.74211 C303.19202,91.74211 303.21985,91.2047 303.21985,91.2047 C301.66064,90.971054 300.45496,91.50279 298.43213,91.3862 C298.43213,91.3862 299.08252,91.473404 299.08252,91.473404 C298.81348,91.689514 297.83453,91.51511 297.18048,91.608 C297.23987,91.42743 296.82983,91.3663 296.54913,91.25729 C296.58447,91.39 295.06885,91.26015 294.88892,91.61937 C294.88892,91.61937 293.9837,91.39189 293.9837,91.39189 C292.34973,91.31085 292.12585,91.92172 290.5561,91.876236 C291.02643,91.67624 290.31165,91.556335 291.36127,91.406586 C290.8374,91.409424 290.36584,91.38147 290.3589,91.5061 C290.0514,91.39711 288.90894,91.7677 288.42517,91.60373 C288.2052,91.68619 288.13544,91.874344 287.54688,91.86771 C287.48218,91.83263 287.54822,91.77908 287.54822,91.77908 C287.54688,91.86771 286.62878,91.91272 287.1454,92.10466 C285.5241,91.566284 282.63525,92.20703 281.22296,91.744965 C280.08026,91.82126 278.70355,91.89661 277.66577,91.93025 C277.7315,91.87482 277.66785,91.84068 277.86426,91.85538 C276.4297,91.71416 276.99268,92.38664 275.3603,92.22978 C274.523,91.95442 276.2229,92.05727 275.70197,91.95633 C275.46588,91.37009 273.73682,92.07243 272.63416,91.74686 C272.63416,91.74686 272.89923,91.70752 272.89923,91.70752 C272.05725,91.52174 270.8579,91.96817 269.48798,91.94969 C269.48798,91.94969 269.55353,91.89661 269.49402,91.86107 C268.56342,92.178116 266.79266,92.30986 265.4773,92.42409 C265.88226,92.18475 266.07324,92.28854 265.8183,92.05963 C265.22845,92.10608 265.99902,92.43356 264.82184,92.52455 C264.43628,92.40654 263.5835,92.314606 263.4655,92.065796 C263.4655,92.065796 264.57697,92.028366 264.57697,92.028366 C264.0005,91.716995 263.13788,92.071014 262.55115,92.02693 C262.55115,92.02693 262.62274,91.88429 262.62274,91.88429 C260.9198,91.967224 260.9041,92.3255 259.07233,92.33972 C259.07233,92.33972 259.26404,92.442566 259.26404,92.442566 C258.2716,92.81885 258.4206,92.26248 257.42865,92.5473 C257.42865,92.5473 257.11804,92.195175 257.11804,92.195175 C256.45966,92.29375 254.8133,92.596115 253.63104,92.69516 C254.29547,92.41318 255.67712,92.23688 256.5313,92.06201 C255.87634,92.071014 254.3075,92.144 253.97083,92.32883 C254.23376,92.28807 254.56396,92.19092 254.82605,92.23973 C254.02954,92.54256 252.97699,92.70938 251.67273,92.73639 C251.88593,92.034515 248.26892,92.64966 247.30853,92.133575 C245.00812,92.44777 242.72766,92.148254 240.04108,92.271484 C241.01013,92.78378 239.2569,92.31033 239.43817,92.86104 C238.8216,92.91458 238.58264,92.91316 238.5216,92.87999 C238.5216,92.87999 238.6513,92.89894 238.6513,92.89894 C238.59454,92.889465 238.5628,92.88472 238.5149,92.87666 C238.5149,92.87666 238.5149,92.8781 238.5149,92.8781 C238.5149,92.8781 236.61023,92.60417 236.61023,92.60417 C236.15564,92.455826 237.2019,92.46341 237.14056,92.34067 C235.76831,92.33925 236.55792,92.12172 235.64594,92.00134 C235.8382,92.195175 235.17847,92.300385 234.39453,92.24826 C234.39453,92.24826 235.50299,92.471466 235.50299,92.471466 C233.59698,92.82643 233.83215,92.0511 231.91083,92.40939 C231.91083,92.40939 232.51575,92.21367 232.51575,92.21367 C231.52814,92.351105 228.86029,92.33499 227.90424,92.81459 C227.72687,92.7563 227.49023,92.61223 227.92474,92.55725 C225.55457,92.571945 222.6709,93.20984 220.82129,93.00226 C220.82129,93.00226 220.99567,92.859604 220.99567,92.859604 C220.55542,92.91553 220.23627,93.14397 219.6781,93.02832 C219.70465,92.97098 219.85095,92.886154 219.64642,92.88521 C219.41412,92.941605 218.48187,93.16861 217.89368,93.11221 C217.89368,93.11221 218.38812,92.9397 218.38812,92.9397 C216.07208,92.849655 214.85834,93.44679 212.9259,93.61456 C212.91522,93.214096 211.09314,93.15297 210.18341,93.12358 C210.18341,93.12358 210.2127,93.06529 210.2127,93.06529 C207.52173,93.12642 205.65912,93.5885 203.17651,93.85057 C201.61249,93.481384 197.93365,93.885635 195.43964,93.76337 C195.82245,93.81787 195.39185,94.0771 194.95245,94.13776 C194.36572,94.08374 193.35431,94.49036 193.42975,94.11928 C193.42975,94.11928 193.63788,94.11691 193.63788,94.11691 C193.18182,93.77759 191.98834,93.92781 191.05304,93.961 C191.05304,93.961 190.92126,94.448654 190.92126,94.448654 C188.44147,93.85863 184.52576,95.00835 183.1604,94.453384 C182.57648,94.60315 181.84521,94.638214 181.26611,94.78798 C181.26611,94.78798 181.28503,94.52875 181.28503,94.52875 C179.64612,94.545334 178.828,94.55434 176.81018,94.71736 C176.81018,94.71736 177.21289,94.512634 177.21289,94.512634 C176.07166,94.55434 175.81189,95.32445 174.76166,95.3979 C174.76166,95.3979 174.42499,95.0311 174.42499,95.0311 C172.43713,95.14531 170.4057,94.91783 168.45996,95.37326 C168.48926,95.31497 168.54156,95.20076 168.86267,95.16759 C167.92603,95.20834 165.22711,95.10503 165.59698,95.61354 C165.55432,95.270905 163.54315,95.69031 162.47864,95.90784 C162.47864,95.90784 162.63104,95.64435 162.63104,95.64435 C161.74335,96.02063 161.71954,96.111145 160.45953,96.274185 C160.15771,96.258545 160.18518,96.086975 160.58716,96.12869 C159.58026,96.054276 159.82245,96.41399 158.60315,96.34953 C158.60315,96.34953 159.04529,96.161865 159.04529,96.161865 C158.01587,96.20215 158.10272,96.284134 157.54791,96.50639 C156.9076,96.64525 155.59393,96.55615 155.42847,96.335785 C155.29834,96.48364 154.7464,96.70308 154.13654,96.67227 C154.04968,96.59123 154.26721,96.5244 154.3764,96.49219 C152.64685,96.41919 151.83838,96.937195 150.64166,96.760895 C150.61176,96.67844 150.53223,96.64099 150.43268,96.62204 C151.79828,96.544785 152.89862,96.49219 152.79688,96.5173 C152.78271,96.282715 151.677,96.30972 152.53497,95.933426 C151.66016,96.163284 150.16992,96.63815 149.08813,96.59407 C149.03467,96.574646 148.98224,96.55568 148.94104,96.52156 C148.94104,96.52156 149.05054,96.48886 149.05054,96.48886 C148.80109,96.48033 148.58032,96.51587 148.37378,96.56848 C148.02838,96.55095 147.80865,96.536255 147.47906,96.55284 C147.34027,96.36754 146.20831,96.526306 145.65808,96.55 C145.71918,96.80307 144.99695,96.80591 145.6842,96.974625 C145.5957,96.96231 145.78625,96.938614 146.15118,96.90497 C146.2334,96.89264 146.33032,96.88364 146.38385,96.86516 C146.38385,96.86516 146.34784,96.8898 146.34784,96.8898 C146.70844,96.86278 147.17877,96.828186 147.7132,96.78885 C147.28717,96.94476 146.8399,97.081726 146.22308,96.97699 C145.95105,97.15898 145.65112,97.346176 145.48083,97.43669 C144.70648,97.12628 143.24475,97.02202 143.0296,96.813965 C141.3598,97.06041 139.08221,97.145706 138.05487,97.68645 C137.58093,97.77507 137.49799,97.57982 137.31525,97.51489 C137.58807,97.45186 137.91614,97.44002 138.06104,97.36276 C137.11426,97.54001 135.23743,97.57129 135.02826,97.91914 C133.81702,97.832886 135.68683,97.57507 134.03741,97.71867 C134.03741,97.71867 134.25507,97.60399 134.25507,97.60399 C130.97784,97.242386 129.01276,98.74423 125.37378,98.21297 C125.62555,98.243774 125.7511,98.25705 125.80487,98.31154 C121.684326,98.190216 117.34027,98.925735 113.27142,98.521484 C112.1167,98.44235 111.99585,98.65845 111.29376,98.83238 C111.29376,98.83238 111.04071,98.561295 111.04071,98.561295 C111.04071,98.561295 109.840576,98.893036 109.840576,98.893036 C108.13336,99.13521 106.88312,98.24472 104.72418,98.66841 C104.72418,98.66841 105.00189,98.8537 105.00189,98.8537 C104.226135,98.81958 102.54236,98.95038 102.67456,98.73428 C102.59479,98.76698 102.417725,98.9229 102.11572,98.82196 C102.11572,98.82196 102.09418,98.67694 102.09418,98.67694 C102.09418,98.67694 100.184204,98.89447 100.184204,98.89447 C98.709045,98.76082 100.42621,98.33334 98.27496,98.24899 C97.474365,98.282166 95.98328,98.60443 96.280396,98.70917 C96.60358,98.72528 97.10376,98.820526 97.12366,98.96602 C97.12366,98.96602 96.38757,99.02005 96.38757,99.02005 C96.24133,99.43994 95.658264,99.85747 97.457275,100.203415 C97.457275,100.203415 98.723816,99.97879 98.723816,99.97879 C98.723816,99.97879 99.124695,100.19536 99.124695,100.19536 C99.124695,100.19536 98.06384,100.179245 98.06384,100.179245 C98.66016,100.38919 99.04663,100.22853 99.47577,100.12285 C99.57446,100.234695 99.749756,100.317154 99.9989,100.36029 C99.9989,100.36029 101.24335,99.97452 101.24335,99.97452 C101.3905,100.14276 100.68317,100.29489 101.51184,100.399155 C102.09412,100.22 100.96228,100.01907 101.92255,99.91101 C102.522095,100.11243 102.34485,100.265976 103.05347,100.1129 C103.15161,100.222855 103.00128,100.29062 102.720215,100.3347 C103.351685,100.21811 104.38745,100.28967 104.71362,100.06836 C105.340454,100.30815 106.83801,100.0148 106.776306,100.41527 C106.97443,100.319534 107.88422,100.09395 108.46167,100.074036 C107.40863,100.56123 110.62555,100.08873 110.351685,100.6053 C111.12842,100.1584 113.17389,100.37451 114.55249,100.10248 C114.47589,100.138016 114.32532,100.21147 114.203064,100.19205 C114.9823,100.20911 115.21167,100.33327 115.714294,100.40294 C115.8056,100.042755 117.016235,99.93518 117.6626,99.69539 C118.62634,100.00816 117.09546,100.13187 117.40442,100.4527 C117.34827,100.165985 119.053894,100.11148 118.7218,99.88164 C119.45807,100.070724 119.3537,99.96504 119.73926,100.2475 C119.85248,99.79822 120.416504,100.15129 121.01184,99.85747 C122.07477,100.03566 121.29877,100.264084 122.45325,100.08353 C123.010254,100.19821 121.98462,100.3963 121.98462,100.3963 C123.1662,100.35791 122.52673,100.046555 122.769775,99.84372 C124.174805,99.69348 123.43182,100.065506 123.918335,100.21858 C124.79541,100.09679 125.456055,99.75368 126.11224,99.739456 C126.163635,99.79254 126.29205,99.80722 126.14569,99.88258 C127.0636,99.57738 128.90521,99.744675 129.97064,99.35321 C130.05255,99.37833 130.09448,99.4044 130.11597,99.42905 C129.93243,99.269806 129.89685,99.10062 129.92682,98.97693 C130.45471,98.94423 130.896,98.71579 131.10614,98.925735 C130.78204,98.93523 130.75946,99.024796 130.61151,99.10109 C130.61151,99.10109 131.16016,98.9774 131.16016,98.9774 C131.67499,99.26933 130.40997,99.12479 130.42188,99.35843 C131.49707,99.20488 132.74036,98.87314 133.57208,98.91864 C133.76172,99.21767 131.64355,99.12573 132.76196,99.3409 C132.76196,99.3409 131.47589,99.29208 131.47589,99.29208 C132.47974,99.727615 130.69617,99.29776 131.62213,99.772156 C133.3122,99.77121 133.49896,99.51387 135.18433,99.51245 C135.55298,99.32004 135.04492,99.266495 135.4137,99.073135 C137.78271,98.6286 137.33752,99.74277 139.06903,99.22952 C139.51111,98.9973 139.66388,98.596375 140.9253,98.729065 C140.9253,98.729065 140.52014,99.10251 140.52014,99.10251 C142.15198,99.039474 141.42047,98.54756 143.14087,98.67836 C142.84583,98.83333 141.86743,98.87125 142.11633,98.898254 C143.23859,99.10631 142.88611,98.6523 143.73572,98.601105 C143.73572,98.601105 143.9306,98.89873 143.9306,98.89873 C145.6623,98.746124 147.55823,98.40491 149.47528,98.23146 C149.37476,98.32909 149.05182,98.44566 149.50671,98.51343 C151.91858,98.20871 154.67834,98.23999 157.0246,98.286896 C157.0246,98.286896 157.901,97.96843 157.901,97.96843 C158.10889,97.958954 158.29327,98.06653 158.0716,98.13098 C158.98804,98.17885 158.10889,97.958954 158.54022,97.82863 C159.05707,97.77934 159.23352,97.941895 158.90979,98.04094 C160.50293,97.722946 163.4574,97.28267 165.16681,97.47792 C165.16681,97.47792 164.841,97.57507 164.841,97.57507 C166.16534,97.6111 166.2981,96.94714 167.53473,97.12912 C167.53473,97.12912 167.30286,97.18884 167.30286,97.18884 C170.17041,97.149506 173.31927,96.7334 175.52362,97.0168 C175.91888,96.612076 178.36493,97.04477 178.5213,96.500244 C180.169,96.68364 179.706,96.802124 182.0163,96.86563 C182.6319,96.85947 182.91522,96.484604 183.6726,96.39029 C183.6726,96.39029 183.70508,96.66989 183.70508,96.66989 C183.70508,96.66989 184.72217,96.323944 184.72217,96.323944 C184.72217,96.323944 185.2876,96.63199 185.2876,96.63199 C185.2876,96.63199 185.99658,96.523926 185.99658,96.523926 C185.71191,96.52156 185.38715,96.42821 185.42621,96.34526 C186.53339,96.16043 188.1499,96.40735 188.18445,96.55 C188.18445,96.55 190.80719,96.192184 190.80719,96.192184 C190.76715,96.278915 190.50635,96.334366 190.23224,96.39407 C191.20789,96.192184 190.33179,96.71445 191.51477,96.41635 C191.33911,96.36043 191.6004,96.24527 191.62683,96.18651 C192.27728,96.32631 193.73938,96.26044 194.81769,96.13864 C194.81769,96.13864 194.61914,96.34195 194.61914,96.34195 C196.57489,96.299774 198.73358,96.05571 200.92712,95.969925 C200.13666,95.91258 200.30261,95.571365 200.94458,95.51164 C200.94458,95.51164 201.21466,95.79695 201.21466,95.79695 C201.62189,95.59601 200.53778,95.71353 201.38062,95.453354 C202.2016,95.453354 201.94617,95.76662 201.47986,95.883194 C201.47986,95.883194 202.4715,95.7377 202.4715,95.7377 C202.53381,95.82396 202.30225,95.88083 202.24646,95.99646 C202.64728,95.795044 203.97809,96.22063 204.55432,95.87656 C204.55432,95.87656 204.61414,95.96234 204.61414,95.96234 C206.80652,95.87277 207.79663,95.7287 209.58203,95.63818 C209.60663,95.38037 210.30725,95.408325 210.83118,95.18228 C212.14734,95.21451 213.6123,95.35904 215.19293,95.27658 C216.29962,95.107864 215.50952,95.0491 216.00354,94.87755 C216.09418,95.10739 217.67297,95.02493 216.85999,95.22398 C218.75696,95.113556 219.28296,95.08417 221.67706,94.80551 C221.41302,94.71831 221.11835,94.688934 221.26733,94.60315 C221.70166,94.54817 222.26245,94.66713 222.20386,94.780396 C222.20386,94.780396 222.0896,94.80788 222.0896,94.80788 C224.77325,94.36714 228.33441,95.27469 230.46393,94.716415 C230.46393,94.716415 230.34424,94.74484 230.34424,94.74484 C230.34424,94.74484 232.56165,94.415955 232.56165,94.415955 C233.58728,94.42116 231.95331,94.61215 232.71558,94.73016 C235.10431,94.26761 236.51111,94.67235 238.48065,94.35339 C240.03168,94.99698 243.9104,94.13634 245.98956,94.52542 C245.98956,94.52542 245.86566,94.36667 245.86566,94.36667 C246.39502,94.19368 246.51416,94.44202 246.90863,94.469025 C246.84937,94.34439 246.32526,94.33823 246.65472,94.24249 C251.17365,93.93161 255.99811,94.22829 260.63928,94.28136 C262.3363,94.28705 261.5833,93.42262 263.73077,93.76195 C263.73077,93.76195 263.12988,94.07616 263.12988,94.07616 C266.54565,93.63446 270.1303,93.944885 273.47632,93.580444 C273.27765,93.6539 273.27368,93.744415 272.94635,93.74867 C273.6582,93.95436 275.56458,93.71219 275.5735,93.534 C276.0959,93.545364 275.69727,93.69322 276.0204,93.77806 C276.73242,93.89464 277.7981,93.46716 278.17896,93.6776 C278.2437,93.71219 277.9806,93.75247 277.85095,93.77142 C278.312,93.65532 280.0074,93.76384 279.56012,93.51836 C280.8205,93.62215 281.96545,93.37334 282.97095,93.50888 C283.6214,93.217896 285.1264,93.615036 285.32886,93.214096 C285.24432,93.62688 287.53864,93.51599 288.33203,93.310776 C288.06744,93.438736 289.0251,93.42973 288.71564,93.60651 C289.62292,93.5885 290.45398,93.50035 290.29333,93.29135 C291.97125,93.76669 293.65088,92.861984 294.59937,93.483765 C297.29358,93.23685 299.78815,93.06102 302.21362,92.94444 C302.12903,93.352005 299.53192,93.010315 299.6397,93.43968 C301.9395,93.2449 303.26465,92.88899 305.54773,92.97478 C306.13916,93.0269 305.21338,93.15486 305.01428,93.22595 C307.3125,93.04349 309.4602,93.23779 311.50488,93.00226 C311.4995,93.04112 311.2787,93.08424 311.07043,93.11694 C311.47388,93.10083 312.00842,93.17145 311.9619,92.9852 C311.9619,92.9852 311.5692,93.03827 311.5692,93.03827 C310.92432,92.771454 313.16833,92.46341 313.2401,92.3203 C312.5575,92.85582 315.26184,92.45062 314.17676,93.12785 C314.4419,93.0923 314.77466,93.00368 314.71338,92.87857 C315.1073,92.915054 315.23267,92.987564 314.83362,93.129745 C316.27747,93.02643 315.76392,92.82881 317.07275,92.8307 C317.068,92.92122 316.80408,92.95628 316.66907,93.0634 C317.33093,92.88521 317.99658,92.70891 319.10254,92.78331 C319.03613,92.837814 319.1648,92.90794 318.83472,92.90794 C320.7339,92.87715 322.07166,92.43404 324.15576,92.60037 C323.54077,92.99373 324.86438,92.72786 324.9746,93.0686 C324.9746,93.0686 326.09497,92.96956 326.09497,92.96956 C326.09497,92.96956 325.6455,92.80417 325.6455,92.80417 C326.62708,92.812225 327.49463,92.5672 328.33826,92.680466 C328.33826,92.680466 327.6089,92.818375 327.6089,92.818375 C327.6089,92.818375 329.448,92.75867 329.448,92.75867 C329.448,92.75867 328.40735,92.627396 328.40735,92.627396 C329.40088,92.45441 328.30164,92.197556 329.6079,92.29518 C329.3424,92.328354 330.5901,92.3018 331.10095,92.50369 C331.10095,92.50369 331.09753,92.504166 331.09753,92.504166 C331.5835,92.397064 332.08362,92.2838 332.8092,92.370056 C332.9973,92.47952 332.65637,92.74539 332.7788,92.818375 C333.25854,92.535446 335.0775,92.74492 335.68555,92.443985 C335.4829,92.5146 335.47168,92.692795 335.53796,92.72975 C335.53796,92.72975 335.94104,92.499435 335.94104,92.499435 C336.3955,92.57478 336.46167,92.61128 336.3872,92.752975 C337.75452,92.80226 335.95483,92.31935 337.57715,92.51413 C337.44946,92.532135 337.51,92.56625 337.24463,92.60037 C338.8744,92.706055 340.39526,92.4691 341.8922,92.59659 C342.33142,92.94208 340.58313,92.670044 341.0868,92.96245 C343.24597,92.915054 345.56152,92.589005 347.6499,92.69705 C347.6499,92.69705 347.2611,92.6544 347.2611,92.6544 C347.5569,92.17528 348.8141,92.90985 349.87317,92.701324 C349.61414,92.734024 349.53015,92.96481 349.60083,92.91174 C351.0299,93.013626 352.52698,92.835434 354.69775,92.73639 C354.69775,92.73639 354.4264,92.8544 354.4264,92.8544 C355.26672,92.98567 356.64453,92.96245 357.5531,93.04918 C357.82642,92.93259 358.34656,92.96814 358.03516,92.77904 C360.8191,93.56053 363.4027,92.57005 365.8689,93.263855 C365.5714,93.25107 365.15552,93.33922 365.3922,93.35011 C365.3922,93.35011 367.51575,93.334946 367.51575,93.334946 C367.3579,93.11694 367.24402,93.1942 366.80627,93.01079 C367.0802,92.89752 367.6836,92.829285 368.20935,92.853455 C367.24866,92.9487 368.20142,93.191345 368.60693,93.32736 C368.54114,93.2596 368.68567,93.19562 368.65405,93.12785 C369.7422,93.55484 368.86157,92.71411 370.36023,93.048706 C370.36023,93.048706 370.2744,93.15439 370.2744,93.15439 C370.84265,93.129745 371.37256,93.013626 371.98096,93.07951 C372.21985,93.336365 371.3723,93.158646 371.32178,93.35628 C372.17847,93.393234 373.04053,92.984726 373.8003,93.28377 C373.4325,93.325 372.9093,93.29419 372.54126,93.343 C373.36816,93.673325 373.46973,93.612656 374.09326,93.69891 C374.09326,93.69891 374.0321,93.68802 374.0321,93.68802 C374.0321,93.68802 375.4713,93.91455 375.4713,93.91455 C375.4713,93.91455 375.10803,93.813126 375.10803,93.813126 C376.2224,93.25296 377.29602,93.83824 378.7688,93.54584 C377.33667,93.82593 378.51953,93.75389 378.3905,94.020706 C378.75256,94.125916 379.30432,94.25624 379.13904,94.320694 C379.83728,94.15434 380.25964,94.58609 381.2473,94.33917 C381.28284,94.42874 381.97363,94.41548 381.80078,94.6221 C382.68982,94.635376 381.6056,94.448654 381.68958,94.34439 C383.0796,94.179474 384.8573,94.98845 386.85303,94.80029 C388.55762,94.81879 388.90637,94.53395 390.48987,94.585144 C391.00098,94.79224 390.0188,94.85243 390.0188,94.85243 C390.85522,95.08844 391.49768,95.14342 392.3131,95.14247 C392.14087,95.19887 392.30017,95.28511 392.53174,95.41354 C393.17786,95.472305 393.00488,95.14247 393.8357,95.38606 C393.67712,95.4633 393.46973,95.59459 393.14648,95.65524 C393.91492,95.668045 394.68286,95.61876 395.47852,95.64719 C395.66443,95.830124 394.97278,95.813065 394.68323,95.87372 ZM146.6925,96.63341 C146.6814,96.64241 146.66309,96.65758 146.6513,96.66753 C146.6831,96.61682 146.72034,96.56848 146.78784,96.53056 C147.15118,96.472275 147.27686,96.51445 147.33032,96.56421 C147.15808,96.583176 146.95697,96.60449 146.6925,96.63341 ZM148.90717,98.199234 C149.02527,98.188324 149.18835,98.17268 149.47345,98.1452 C149.47345,98.1452 149.47388,98.14993 149.47388,98.14993 C149.23755,98.17079 149.03583,98.188324 148.90717,98.199234 ZM150.78082,98.05231 C150.69415,97.96843 150.77625,97.87222 151.00897,97.86322 C150.88629,97.929565 151.43414,97.94757 151.78333,98.00113 C151.50165,98.01535 151.15125,98.03288 150.78082,98.05231 ZM146.15118,96.90497 C146.09882,96.914444 146.07019,96.92676 146.0014,96.933395 C146.07806,96.949036 146.15039,96.96326 146.22308,96.97699 C146.26587,96.94714 146.3089,96.91728 146.34784,96.8898 C146.28143,96.89548 146.21277,96.900696 146.15118,96.90497 ZM355.85303,91.98523 C355.89355,91.99614 355.93066,92.00751 355.9547,92.02457 C355.92236,92.01129 355.92273,92.00325 355.90186,91.99187 C355.90186,91.99187 355.85303,91.98523 355.85303,91.98523 ZM183.71161,96.73387 C183.71161,96.73387 183.70508,96.66989 183.70508,96.66989 C183.70508,96.66989 183.50598,96.73625 183.50598,96.73625 C183.50598,96.73625 183.71161,96.73387 183.71161,96.73387 ZM368.60693,93.32736 C368.63013,93.35153 368.6764,93.376175 368.7704,93.40082 C368.76392,93.383286 368.69324,93.35675 368.60693,93.32736 ZM374.09326,93.69891 C374.09326,93.69891 374.86304,93.84204 374.86304,93.84204 C374.53088,93.76764 374.28796,93.72688 374.09326,93.69891 ZM378.29993,94.12308 C378.35657,94.082794 378.3745,94.04962 378.3905,94.020706 C378.3905,94.020706 378.38257,94.01787 378.38257,94.01787 C378.38257,94.01787 378.29993,94.12308 378.29993,94.12308 ZM311.07043,93.11694 C311.01355,93.118835 310.95752,93.12169 310.9071,93.12927 C310.52417,93.18092 310.78455,93.16008 311.07043,93.11694 ZM331.09753,92.504166 C330.885,92.54967 330.6754,92.59422 330.4535,92.62312 C330.8098,92.64351 331.0868,92.649185 331.09753,92.504166 ZM288.71326,93.61124 C288.71326,93.61124 288.71564,93.60651 288.71564,93.60651 C288.66766,93.60698 288.6255,93.60745 288.5775,93.6084 C288.5775,93.6084 288.71326,93.61124 288.71326,93.61124 ZM329.5221,92.616486 C329.87842,92.66768 330.17664,92.65819 330.4535,92.62312 C330.16138,92.60512 329.81702,92.57811 329.5221,92.616486 ZM396.67432,96.26091 C396.67334,96.24385 396.68713,96.23152 396.7041,96.22394 C396.7041,96.22394 396.4746,96.22252 396.4746,96.22252 C396.4746,96.22252 396.67432,96.26091 396.67432,96.26091 ZM396.7041,96.22394 C396.7041,96.22394 396.93225,96.22537 396.93225,96.22537 C396.82935,96.21115 396.7401,96.20024 396.7041,96.22394 ZM397.41235,96.22868 C397.41235,96.22868 396.93225,96.22537 396.93225,96.22537 C397.09497,96.249054 397.29456,96.28461 397.41235,96.22868 ZM389.26282,95.18843 C389.66333,95.25336 390.24792,95.50833 390.8158,95.519226 C390.8158,95.519226 390.87708,95.45146 390.87708,95.45146 C390.5968,95.55762 389.66394,95.07469 389.26282,95.18843 ZM383.823,93.28993 C382.05542,92.82834 384.1725,93.54489 382.3114,93.33069 C382.3114,93.33069 383.7273,93.53731 383.7273,93.53731 C383.48804,93.415985 383.17322,93.25249 383.823,93.28993 ZM377.90576,92.82312 C378.67505,92.83876 377.9076,92.67905 377.95227,92.62596 C377.45947,92.677155 377.34045,92.6909 377.90576,92.82312 ZM345.9159,91.61937 C345.9159,91.61937 345.99548,91.387146 345.99548,91.387146 C345.4038,91.4137 345.989,91.47815 345.9159,91.61937 ZM340.3662,92.91695 C340.3662,92.91695 340.64136,92.70558 340.64136,92.70558 C340.64136,92.70558 339.79224,92.76956 339.79224,92.76956 C339.79224,92.76956 340.3662,92.91695 340.3662,92.91695 ZM336.44775,91.06062 C336.44775,91.06062 335.46118,91.14166 335.46118,91.14166 C335.46118,91.14166 336.18945,91.09238 336.18945,91.09238 C336.18945,91.09238 336.44775,91.06062 336.44775,91.06062 ZM282.46112,91.45018 C282.46112,91.45018 282.64386,91.73453 282.64386,91.73453 C283.0426,91.677185 283.1219,91.35445 282.46112,91.45018 ZM259.2765,92.17386 C259.02075,92.03642 258.36615,91.958694 257.96765,92.10846 C258.48938,92.11603 259.0119,92.21651 259.2765,92.17386 ZM190.20374,94.023544 C190.20374,94.023544 189.32922,94.14392 189.32922,94.14392 C189.32922,94.14392 189.74219,94.14014 189.74219,94.14014 C189.74219,94.14014 190.20374,94.023544 190.20374,94.023544 Z"/>
</svg>