<svg xmlns="http://www.w3.org/2000/svg"
     xmlns:xlink="http://www.w3.org/1999/xlink"
     width="126px" height="53px"  viewBox="0 0 126 53">
    <path fill-rule="evenodd"  fill="#161616"
          d="M7.870987,42.07895 C7.870987,42.07895 2.5621872,42.07895 2.5621872,42.07895 C2.5621872,42.07895 2.5621872,33.763123 2.5621872,33.763123 C2.5621872,33.763123 3.5119324,33.763123 3.5119324,33.763123 C3.5119324,33.763123 3.5119324,41.21167 3.5119324,41.21167 C3.5119324,41.21167 7.870987,41.21167 7.870987,41.21167 C7.870987,41.21167 7.870987,42.07895 7.870987,42.07895 ZM11.852615,34.921387 C12.69696,34.093445 13.719719,33.679718 14.921234,33.679718 C16.12252,33.679718 17.147453,34.093445 17.995918,34.921387 C18.84404,35.74884 19.268272,36.74881 19.268272,37.920807 C19.268272,39.092804 18.84404,40.092743 17.995918,40.920227 C17.147453,41.748627 16.12252,42.161865 14.921234,42.161865 C13.719719,42.161865 12.69696,41.748627 11.852615,40.920227 C11.00827,40.092743 10.586327,39.092804 10.586327,37.920807 C10.586327,36.74881 11.00827,35.74884 11.852615,34.921387 ZM17.332275,35.515198 C16.674698,34.87021 15.870979,34.547455 14.921234,34.547455 C13.971489,34.547455 13.16983,34.87021 12.516258,35.515198 C11.862801,36.161133 11.536072,36.962524 11.536072,37.920807 C11.536072,38.87906 11.862801,39.68094 12.516258,40.326874 C13.16983,40.971863 13.971489,41.294617 14.921234,41.294617 C15.870979,41.294617 16.674698,40.971863 17.332275,40.326874 C17.989853,39.68094 18.318527,38.87906 18.318527,37.920807 C18.318527,36.962524 17.989853,36.161133 17.332275,35.515198 ZM31.445015,42.07895 C31.445015,42.07895 30.495384,42.07895 30.495384,42.07895 C30.495384,42.07895 30.495384,35.545044 30.495384,35.545044 C30.495384,35.545044 27.317131,39.488983 27.317131,39.488983 C27.317131,39.488983 24.138878,35.545044 24.138878,35.545044 C24.138878,35.545044 24.138878,42.07895 24.138878,42.07895 C24.138878,42.07895 23.189247,42.07895 23.189247,42.07895 C23.189247,42.07895 23.189247,33.763123 23.189247,33.763123 C23.189247,33.763123 23.724945,33.763123 23.724945,33.763123 C23.724945,33.763123 27.317131,38.229797 27.317131,38.229797 C27.317131,38.229797 30.909317,33.763123 30.909317,33.763123 C30.909317,33.763123 31.445015,33.763123 31.445015,33.763123 C31.445015,33.763123 31.445015,42.07895 31.445015,42.07895 ZM36.7418,34.921387 C37.5858,34.093445 38.608902,33.679718 39.810417,33.679718 C41.011703,33.679718 42.036636,34.093445 42.884758,34.921387 C43.732994,35.74884 44.157455,36.74881 44.157455,37.920807 C44.157455,39.092804 43.732994,40.092743 42.884758,40.920227 C42.036636,41.748627 41.011703,42.161865 39.810417,42.161865 C38.608902,42.161865 37.5858,41.748627 36.7418,40.920227 C35.897568,40.092743 35.47551,39.092804 35.47551,37.920807 C35.47551,36.74881 35.897568,35.74884 36.7418,34.921387 ZM42.22123,35.515198 C41.56388,34.87021 40.760277,34.547455 39.810417,34.547455 C38.860443,34.547455 38.05867,34.87021 37.40544,35.515198 C36.751984,36.161133 36.425255,36.962524 36.425255,37.920807 C36.425255,38.87906 36.751984,39.68094 37.40544,40.326874 C38.05867,40.971863 38.860443,41.294617 39.810417,41.294617 C40.760277,41.294617 41.56388,40.971863 42.22123,40.326874 C42.878807,39.68094 43.20771,38.87906 43.20771,37.920807 C43.20771,36.962524 42.878807,36.161133 42.22123,35.515198 ZM54.531868,42.07895 C54.531868,42.07895 54.0083,42.07895 54.0083,42.07895 C54.0083,42.07895 49.02806,35.580597 49.02806,35.580597 C49.02806,35.580597 49.02806,42.07895 49.02806,42.07895 C49.02806,42.07895 48.07843,42.07895 48.07843,42.07895 C48.07843,42.07895 48.07843,33.763123 48.07843,33.763123 C48.07843,33.763123 48.614014,33.763123 48.614014,33.763123 C48.614014,33.763123 53.582123,40.261475 53.582123,40.261475 C53.582123,40.261475 53.582123,33.763123 53.582123,33.763123 C53.582123,33.763123 54.531868,33.763123 54.531868,33.763123 C54.531868,33.763123 54.531868,42.07895 54.531868,42.07895 ZM59.718903,34.921387 C60.563133,34.093445 61.58589,33.679718 62.78752,33.679718 C63.988693,33.679718 65.01374,34.093445 65.86209,34.921387 C66.71033,35.74884 67.134445,36.74881 67.134445,37.920807 C67.134445,39.092804 66.71033,40.092743 65.86209,40.920227 C65.01374,41.748627 63.988693,42.161865 62.78752,42.161865 C61.58589,42.161865 60.563133,41.748627 59.718903,40.920227 C58.874557,40.092743 58.4525,39.092804 58.4525,37.920807 C58.4525,36.74881 58.874557,35.74884 59.718903,34.921387 ZM65.19845,35.515198 C64.54087,34.87021 63.737267,34.547455 62.78752,34.547455 C61.837776,34.547455 61.03589,34.87021 60.382545,35.515198 C59.728973,36.161133 59.402245,36.962524 59.402245,37.920807 C59.402245,38.87906 59.728973,39.68094 60.382545,40.326874 C61.03589,40.971863 61.837776,41.294617 62.78752,41.294617 C63.737267,41.294617 64.54087,40.971863 65.19845,40.326874 C65.8558,39.68094 66.184814,38.87906 66.184814,37.920807 C66.184814,36.962524 65.8558,36.161133 65.19845,35.515198 ZM73.624504,33.679718 C73.624504,33.679718 73.758514,33.679718 73.758514,33.679718 C74.35933,33.679718 74.93371,33.802948 75.48142,34.047943 C76.02948,34.293915 76.48198,34.634186 76.839264,35.069702 C76.839264,35.069702 76.21819,35.616608 76.21819,35.616608 C75.926025,35.283447 75.556496,35.02185 75.11029,34.832275 C74.66351,34.641785 74.21296,34.547455 73.758514,34.547455 C73.758514,34.547455 73.624504,34.547455 73.624504,34.547455 C73.12131,34.547455 72.66469,34.67401 72.25465,34.927063 C71.84483,35.180603 71.639984,35.536987 71.639984,35.996216 C71.639984,36.3526 71.78796,36.62796 72.08424,36.822266 C72.38042,37.01657 72.84127,37.153046 73.46646,37.23172 C73.46646,37.23172 74.391716,37.350677 74.391716,37.350677 C75.29282,37.46158 75.97466,37.701385 76.43735,38.06961 C76.90015,38.437378 77.13143,38.985687 77.13143,39.71457 C77.13143,40.44345 76.82908,41.031586 76.224144,41.478973 C75.61967,41.92682 74.87466,42.154297 73.99003,42.161865 C73.99003,42.161865 73.917015,42.161865 73.917015,42.161865 C73.09682,42.161865 72.38877,41.997894 71.792076,41.669006 C71.19538,41.340576 70.7589,40.90268 70.48287,40.356262 C70.48287,40.356262 71.10406,39.797974 71.10406,39.797974 C71.30696,40.241577 71.652115,40.601746 72.13906,40.878998 C72.626236,41.15622 73.21847,41.294617 73.917015,41.294617 C73.917015,41.294617 73.99003,41.294617 73.99003,41.294617 C74.61499,41.294617 75.13627,41.151947 75.55455,40.867126 C75.97272,40.58185 76.18169,40.197968 76.18169,39.71457 C76.18169,39.263397 76.02353,38.920776 75.706985,38.687134 C75.39033,38.453003 74.91528,38.293304 74.282196,38.205627 C74.282196,38.205627 73.35683,38.099 73.35683,38.099 C72.47197,37.988556 71.80604,37.766296 71.35995,37.433624 C70.91317,37.10092 70.689896,36.629852 70.689896,36.020386 C70.689896,35.323273 70.97634,34.7612 71.548546,34.333252 C72.12075,33.905304 72.81266,33.687775 73.624504,33.679718 ZM81.74615,34.921387 C82.59049,34.093445 83.61325,33.679718 84.814766,33.679718 C86.01594,33.679718 87.040985,34.093445 87.88945,34.921387 C88.73757,35.74884 89.161804,36.74881 89.161804,37.920807 C89.161804,39.092804 88.73757,40.092743 87.88945,40.920227 C87.040985,41.748627 86.01594,42.161865 84.814766,42.161865 C83.61325,42.161865 82.59049,41.748627 81.74615,40.920227 C80.9018,40.092743 80.47986,39.092804 80.47986,37.920807 C80.47986,36.74881 80.9018,35.74884 81.74615,34.921387 ZM87.22581,35.515198 C86.56823,34.87021 85.76451,34.547455 84.814766,34.547455 C83.86502,34.547455 83.06325,34.87021 82.40979,35.515198 C81.75633,36.161133 81.42949,36.962524 81.42949,37.920807 C81.42949,38.87906 81.75633,39.68094 82.40979,40.326874 C83.06325,40.971863 83.86502,41.294617 84.814766,41.294617 C85.76451,41.294617 86.56823,40.971863 87.22581,40.326874 C87.883156,39.68094 88.21206,38.87906 88.21206,37.920807 C88.21206,36.962524 87.883156,36.161133 87.22581,35.515198 ZM96.04176,42.07895 C96.04176,42.07895 95.51808,42.07895 95.51808,42.07895 C95.51808,42.07895 91.938255,33.763123 91.938255,33.763123 C91.938255,33.763123 92.985504,33.763123 92.985504,33.763123 C92.985504,33.763123 95.774086,40.356262 95.774086,40.356262 C95.774086,40.356262 98.55019,33.763123 98.55019,33.763123 C98.55019,33.763123 99.59744,33.763123 99.59744,33.763123 C99.59744,33.763123 96.04176,42.07895 96.04176,42.07895 ZM103.44506,39.86908 C103.44506,39.86908 102.51969,42.07895 102.51969,42.07895 C102.51969,42.07895 101.47256,42.07895 101.47256,42.07895 C101.47256,42.07895 105.003746,33.763123 105.003746,33.763123 C105.003746,33.763123 105.53956,33.763123 105.53956,33.763123 C105.53956,33.763123 109.05862,42.07895 109.05862,42.07895 C109.05862,42.07895 108.01148,42.07895 108.01148,42.07895 C108.01148,42.07895 107.085884,39.86908 107.085884,39.86908 C107.085884,39.86908 103.44506,39.86908 103.44506,39.86908 ZM105.27142,35.47397 C105.27142,35.47397 103.786095,39.00229 103.786095,39.00229 C103.786095,39.00229 106.75721,39.00229 106.75721,39.00229 C106.75721,39.00229 105.27142,35.47397 105.27142,35.47397 ZM114.65993,42.07895 C114.65993,42.07895 113.710175,42.07895 113.710175,42.07895 C113.710175,42.07895 113.710175,35.63983 113.710175,35.63983 C113.710175,35.63983 112.63855,36.899048 112.63855,36.899048 C112.63855,36.899048 112.005356,36.423706 112.005356,36.423706 C112.005356,36.423706 114.12399,33.941315 114.12399,33.941315 C114.12399,33.941315 114.65993,33.941315 114.65993,33.941315 C114.65993,33.941315 114.65993,42.07895 114.65993,42.07895 ZM123.99922,40.46289 C123.99922,40.46289 123.99922,42.07895 123.99922,42.07895 C123.99922,42.07895 123.04947,42.07895 123.04947,42.07895 C123.04947,42.07895 123.04947,40.46289 123.04947,40.46289 C123.04947,40.46289 118.42239,40.46289 118.42239,40.46289 C118.42239,40.46289 118.42239,39.940643 118.42239,39.940643 C118.42239,39.940643 123.46364,33.941315 123.46364,33.941315 C123.46364,33.941315 123.99922,33.941315 123.99922,33.941315 C123.99922,33.941315 123.99922,39.59561 123.99922,39.59561 C123.99922,39.59561 124.961334,39.59561 124.961334,39.59561 C124.961334,39.59561 124.961334,40.46289 124.961334,40.46289 C124.961334,40.46289 123.99922,40.46289 123.99922,40.46289 ZM123.04947,35.532745 C123.04947,35.532745 119.59131,39.59561 119.59131,39.59561 C119.59131,39.59561 123.04947,39.59561 123.04947,39.59561 C123.04947,39.59561 123.04947,35.532745 123.04947,35.532745 ZM5.3765182,51.954407 C5.3765182,51.954407 4.878586,51.954407 4.878586,51.954407 C4.878586,51.954407 4.878586,49.973907 4.878586,49.973907 C4.878586,49.973907 2.497528,49.973907 2.497528,49.973907 C2.497528,49.973907 2.497528,51.954407 2.497528,51.954407 C2.497528,51.954407 1.9997101,51.954407 1.9997101,51.954407 C1.9997101,51.954407 1.9997101,47.595337 1.9997101,47.595337 C1.9997101,47.595337 2.497528,47.595337 2.497528,47.595337 C2.497528,47.595337 2.497528,49.51895 2.497528,49.51895 C2.497528,49.51895 4.878586,49.51895 4.878586,49.51895 C4.878586,49.51895 4.878586,47.595337 4.878586,47.595337 C4.878586,47.595337 5.3765182,47.595337 5.3765182,47.595337 C5.3765182,47.595337 5.3765182,51.954407 5.3765182,51.954407 ZM13.458221,50.795685 C13.458221,50.795685 12.973106,51.954407 12.973106,51.954407 C12.973106,51.954407 12.423904,51.954407 12.423904,51.954407 C12.423904,51.954407 14.275215,47.595337 14.275215,47.595337 C14.275215,47.595337 14.556168,47.595337 14.556168,47.595337 C14.556168,47.595337 16.400955,51.954407 16.400955,51.954407 C16.400955,51.954407 15.852097,51.954407 15.852097,51.954407 C15.852097,51.954407 15.3669815,50.795685 15.3669815,50.795685 C15.3669815,50.795685 13.458221,50.795685 13.458221,50.795685 ZM14.41552,48.491516 C14.41552,48.491516 13.636864,50.341675 13.636864,50.341675 C13.636864,50.341675 15.194519,50.341675 15.194519,50.341675 C15.194519,50.341675 14.41552,48.491516 14.41552,48.491516 ZM24.418686,51.49994 C24.418686,51.49994 24.942368,51.49994 24.942368,51.49994 C24.942368,51.49994 24.942368,51.954407 24.942368,51.954407 C24.942368,51.954407 23.397415,51.954407 23.397415,51.954407 C23.397415,51.954407 23.397415,51.49994 23.397415,51.49994 C23.397415,51.49994 23.920753,51.49994 23.920753,51.49994 C23.920753,51.49994 23.920753,48.049347 23.920753,48.049347 C23.920753,48.049347 23.397415,48.049347 23.397415,48.049347 C23.397415,48.049347 23.397415,47.595337 23.397415,47.595337 C23.397415,47.595337 24.942368,47.595337 24.942368,47.595337 C24.942368,47.595337 24.942368,48.049347 24.942368,48.049347 C24.942368,48.049347 24.418686,48.049347 24.418686,48.049347 C24.418686,48.049347 24.418686,51.49994 24.418686,51.49994 ZM32.449463,47.595337 C32.449463,47.595337 33.885696,47.595337 33.885696,47.595337 C34.460304,47.595337 34.925163,47.736084 35.280502,48.018066 C35.635727,48.300507 35.81357,48.682983 35.81357,49.16446 C35.81357,49.51706 35.711487,49.81421 35.50698,50.054962 C35.302704,50.295715 35.02404,50.46585 34.670876,50.56537 C34.91349,50.665833 35.16011,50.906097 35.411423,51.288086 C35.411423,51.288086 35.858086,51.954407 35.858086,51.954407 C35.858086,51.954407 35.29,51.954407 35.29,51.954407 C35.29,51.954407 34.926193,51.40042 34.926193,51.40042 C34.743317,51.126495 34.581383,50.947815 34.44108,50.86441 C34.30066,50.781464 34.106796,50.738342 33.860176,50.73407 C33.860176,50.73407 32.94728,50.73407 32.94728,50.73407 C32.94728,50.73407 32.94728,51.954407 32.94728,51.954407 C32.94728,51.954407 32.449463,51.954407 32.449463,51.954407 C32.449463,51.954407 32.449463,47.595337 32.449463,47.595337 ZM32.94728,48.049347 C32.94728,48.049347 32.94728,50.279114 32.94728,50.279114 C32.94728,50.279114 33.923805,50.279114 33.923805,50.279114 C34.336708,50.279114 34.676025,50.18576 34.942215,49.999023 C35.20806,49.812317 35.341156,49.53412 35.341156,49.16446 C35.341156,48.799072 35.20806,48.52231 34.942215,48.332733 C34.676025,48.144135 34.336708,48.049347 33.923805,48.049347 C33.923805,48.049347 32.94728,48.049347 32.94728,48.049347 ZM53.770493,51.954407 C53.770493,51.954407 53.41298,51.599915 53.41298,51.599915 C53.144844,51.85251 52.766045,51.979523 52.27681,51.979523 C52.27681,51.979523 52.232063,51.979523 52.232063,51.979523 C51.768005,51.97528 51.39882,51.861053 51.12462,51.6369 C50.84996,51.41272 50.71286,51.109894 50.71286,50.727448 C50.71286,50.46585 50.783813,50.243103 50.926636,50.0578 C51.068886,49.872986 51.263893,49.737427 51.510742,49.650238 C51.510742,49.650238 51.2489,49.394806 51.2489,49.394806 C51.040276,49.170624 50.93625,48.919464 50.93625,48.641266 C50.93625,48.325623 51.057327,48.07068 51.299828,47.87494 C51.542442,47.680176 51.855324,47.58252 52.238243,47.58252 C52.238243,47.58252 52.289513,47.58252 52.289513,47.58252 C52.65538,47.586334 52.963913,47.689636 53.21511,47.890594 C53.46608,48.09247 53.59162,48.359283 53.59162,48.69104 C53.59162,48.69104 53.59162,48.75357 53.59162,48.75357 C53.59162,48.75357 53.11944,48.75357 53.11944,48.75357 C53.11944,48.51236 53.034065,48.33084 52.86412,48.2081 C52.693604,48.085846 52.489555,48.025177 52.25129,48.025177 C52.017143,48.025177 51.815956,48.083466 51.647957,48.202423 C51.479614,48.320435 51.395844,48.496246 51.395844,48.728455 C51.395844,48.919464 51.46794,49.0896 51.61271,49.23886 C51.61271,49.23886 53.368233,51.007538 53.368233,51.007538 C53.449028,50.870575 53.489655,50.71277 53.489655,50.534546 C53.489655,50.534546 53.853462,50.534546 53.853462,50.534546 C53.853462,50.82129 53.787315,51.080505 53.655594,51.312744 C53.655594,51.312744 54.281128,51.954407 54.281128,51.954407 C54.281128,51.954407 53.770493,51.954407 53.770493,51.954407 ZM52.28299,51.537354 C52.640503,51.537354 52.910698,51.44165 53.09369,51.25113 C53.09369,51.25113 51.746834,49.90567 51.746834,49.90567 C51.57666,49.9635 51.44139,50.056366 51.34137,50.182434 C51.24135,50.30945 51.191452,50.46396 51.191452,50.64688 C51.191452,50.92459 51.292618,51.143066 51.49472,51.300415 C51.69671,51.45822 51.95958,51.537354 52.28299,51.537354 ZM69.556816,47.595337 C69.556816,47.595337 71.17856,47.595337 71.17856,47.595337 C72.16561,47.595337 72.659424,47.96878 72.659424,48.716156 C72.659424,49.20569 72.43363,49.52368 71.98262,49.6687 C72.272156,49.722748 72.496574,49.84549 72.65622,50.03601 C72.815865,50.22699 72.895515,50.46396 72.895515,50.74594 C72.895515,51.552063 72.37618,51.954407 71.33786,51.954407 C71.33786,51.954407 69.556816,51.954407 69.556816,51.954407 C69.556816,51.954407 69.556816,47.595337 69.556816,47.595337 ZM70.05475,48.049347 C70.05475,48.049347 70.05475,49.48816 70.05475,49.48816 C70.05475,49.48816 71.22296,49.48816 71.22296,49.48816 C71.86555,49.48816 72.187126,49.249786 72.187126,48.771606 C72.187126,48.552155 72.12006,48.376343 71.98594,48.245544 C71.851814,48.115204 71.59753,48.049347 71.22296,48.049347 C71.22296,48.049347 70.05475,48.049347 70.05475,48.049347 ZM70.05475,49.90567 C70.05475,49.90567 70.05475,51.49994 70.05475,51.49994 C70.05475,51.49994 71.42724,51.49994 71.42724,51.49994 C72.09134,51.49994 72.4231,51.234528 72.4231,50.70279 C72.4231,50.457794 72.34013,50.26349 72.17431,50.12036 C72.00814,49.977234 71.759346,49.90567 71.42724,49.90567 C71.42724,49.90567 70.05475,49.90567 70.05475,49.90567 ZM80.53651,49.525604 C80.53651,49.525604 82.72622,49.525604 82.72622,49.525604 C82.72622,49.525604 82.72622,49.980072 82.72622,49.980072 C82.72622,49.980072 80.53651,49.980072 80.53651,49.980072 C80.53651,49.980072 80.53651,51.49994 80.53651,51.49994 C80.53651,51.49994 82.86664,51.49994 82.86664,51.49994 C82.86664,51.49994 82.86664,51.954407 82.86664,51.954407 C82.86664,51.954407 80.038574,51.954407 80.038574,51.954407 C80.038574,51.954407 80.038574,47.595337 80.038574,47.595337 C80.038574,47.595337 82.86664,47.595337 82.86664,47.595337 C82.86664,47.595337 82.86664,48.049347 82.86664,48.049347 C82.86664,48.049347 80.53651,48.049347 80.53651,48.049347 C80.53651,48.049347 80.53651,49.525604 80.53651,49.525604 ZM90.61635,50.795685 C90.61635,50.795685 90.13123,51.954407 90.13123,51.954407 C90.13123,51.954407 89.58203,51.954407 89.58203,51.954407 C89.58203,51.954407 91.43323,47.595337 91.43323,47.595337 C91.43323,47.595337 91.71441,47.595337 91.71441,47.595337 C91.71441,47.595337 93.55908,51.954407 93.55908,51.954407 C93.55908,51.954407 93.01022,51.954407 93.01022,51.954407 C93.01022,51.954407 92.524994,50.795685 92.524994,50.795685 C92.524994,50.795685 90.61635,50.795685 90.61635,50.795685 ZM91.57399,48.491516 C91.57399,48.491516 90.79499,50.341675 90.79499,50.341675 C90.79499,50.341675 92.352646,50.341675 92.352646,50.341675 C92.352646,50.341675 91.57399,48.491516 91.57399,48.491516 ZM104.16249,47.595337 C104.16249,47.595337 104.16249,50.08008 104.16249,50.08008 C104.16249,50.665833 103.99449,51.131226 103.658035,51.47812 C103.32204,51.824554 102.88373,51.998474 102.34334,51.998474 C101.798485,51.998474 101.359146,51.82599 101.02498,51.481445 C100.6907,51.136444 100.52384,50.669617 100.52384,50.08008 C100.52384,50.08008 100.52384,47.595337 100.52384,47.595337 C100.52384,47.595337 101.02166,47.595337 101.02166,47.595337 C101.02166,47.595337 101.02166,50.06729 101.02166,50.06729 C101.02166,50.53647 101.13988,50.899963 101.3762,51.157288 C101.61229,51.41461 101.934555,51.543518 102.34334,51.543518 C102.75178,51.543518 103.07404,51.41461 103.31036,51.157288 C103.546455,50.899963 103.66467,50.53647 103.66467,50.06729 C103.66467,50.06729 103.66467,47.595337 103.66467,47.595337 C103.66467,47.595337 104.16249,47.595337 104.16249,47.595337 ZM113.06119,48.049347 C113.06119,48.049347 113.06119,51.954407 113.06119,51.954407 C113.06119,51.954407 112.56326,51.954407 112.56326,51.954407 C112.56326,51.954407 112.56326,48.049347 112.56326,48.049347 C112.56326,48.049347 111.17795,48.049347 111.17795,48.049347 C111.17795,48.049347 111.17795,47.595337 111.17795,47.595337 C111.17795,47.595337 114.43997,47.595337 114.43997,47.595337 C114.43997,47.595337 114.43997,48.049347 114.43997,48.049347 C114.43997,48.049347 113.06119,48.049347 113.06119,48.049347 ZM123.29381,51.954407 C123.29381,51.954407 122.79587,51.954407 122.79587,51.954407 C122.79587,51.954407 122.79587,50.459686 122.79587,50.459686 C122.79587,50.459686 121.097916,47.595337 121.097916,47.595337 C121.097916,47.595337 121.66623,47.595337 121.66623,47.595337 C121.66623,47.595337 123.05119,49.87439 123.05119,49.87439 C123.05119,49.87439 124.43033,47.595337 124.43033,47.595337 C124.43033,47.595337 124.99841,47.595337 124.99841,47.595337 C124.99841,47.595337 123.29381,50.459686 123.29381,50.459686 C123.29381,50.459686 123.29381,51.954407 123.29381,51.954407 ZM76.66211,4.73526 C76.56438,4.73526 76.4013,4.7670135 76.33595,4.862274 C75.58591,5.4669952 73.98831,6.42099 72.97734,6.42099 C72.81243,6.42099 72.63528,6.485443 72.55128,6.5882874 C72.376526,6.2920837 71.55873,5.8484955 71.08632,5.8484955 C69.48838,5.8484955 63.488815,12.847763 62.47796,14.183746 C63.97782,10.270615 68.02125,3.8765259 68.73856,3.0812988 C68.83641,3.0173187 68.86891,2.922058 68.86891,2.858078 C68.73856,2.380844 67.79294,1.9993439 67.33643,1.9993439 C65.15187,2.380844 56.77159,13.611252 54.88034,18.509659 C54.79657,18.724335 54.733055,18.92717 54.68373,19.120056 C54.159477,19.073608 53.602264,19.050858 53.02182,19.050858 C51.75004,19.050858 50.44587,19.146118 49.108856,19.273605 C50.380753,17.396423 51.78277,15.138214 52.95659,13.1657715 C56.47828,11.82933 60.423744,7.820938 60.195435,4.3855133 C60.16282,3.6533203 59.543236,3.1765594 58.82592,3.1765594 C57.130363,3.1765594 55.760963,5.562256 55.010803,6.675949 C53.217514,9.4118805 53.217514,9.443634 51.521843,12.211304 C50.804527,12.465317 50.119827,12.56105 49.46763,12.56105 C48.32631,12.56105 47.315453,12.179077 46.66337,11.383835 C46.36994,11.002335 46.7286,10.334122 46.532906,10.111374 C46.50029,10.04834 46.435173,10.01564 46.36994,10.01564 C45.815704,10.01564 45.522163,13.833511 49.46763,13.833511 C49.79367,13.833511 50.184944,13.801758 50.576218,13.738266 C49.435013,15.583221 47.93515,17.873657 46.66337,19.68686 C45.06566,19.973587 43.533066,20.38684 42.39186,20.768814 C41.90274,20.896301 41.772278,21.755035 41.96797,22.041275 C42.13105,21.977768 42.35913,21.946014 42.620056,21.882034 C42.97883,22.836502 43.467834,23.568237 44.413345,23.568237 C45.913437,23.568237 47.087257,22.009521 47.869804,20.991074 C49.30455,20.864548 50.804527,20.800568 52.17404,20.800568 C53.065994,20.800568 53.919037,20.830902 54.692314,20.896774 C54.98208,21.745087 55.637367,22.036072 55.597885,21.882034 C55.555885,21.645554 55.57637,21.348404 55.64904,21.002457 C57.120064,21.20813 58.155754,21.5811 58.369415,22.168762 C58.369415,22.231796 58.40203,22.359268 58.434647,22.359268 C58.467262,22.359268 58.467262,22.359268 58.499763,22.32753 C58.597725,22.168762 58.597725,21.977768 58.63034,21.819016 C58.86174,20.50531 57.857063,19.735199 56.213806,19.353699 C57.936943,15.393646 62.757538,8.726593 65.67349,5.3077545 C64.72787,6.5802307 60.619324,14.056732 60.94525,15.678467 C61.043213,16.314941 61.727913,16.760422 62.05407,16.760422 C62.184418,16.760422 62.282265,16.696915 62.282265,16.569443 C62.901848,15.487961 69.58646,8.584885 69.74942,8.489166 C68.151596,11.256836 65.67349,17.174149 66.13,19.528091 C66.35808,20.800568 67.33643,21.11856 67.92329,21.11856 C68.28217,21.11856 68.510254,20.991074 68.24933,20.896301 C67.82544,20.67308 67.82544,20.323334 67.82544,19.877853 C67.72771,17.176056 70.13692,10.249756 72.51534,6.7797394 C72.51786,6.787796 72.51729,6.7949066 72.52095,6.8029633 C72.71653,7.2489166 73.17292,7.4711914 73.75989,7.4711914 C74.118546,7.4711914 74.47743,7.375458 74.86859,7.2489166 C73.07519,10.365875 71.3144,14.119766 70.205696,17.365143 C69.55373,19.273605 69.944885,20.164566 70.30377,20.164566 C70.401505,20.164566 70.53185,20.068832 70.597084,19.81482 C71.64056,16.028702 75.84683,9.029892 78.09674,5.5944824 C78.19447,5.498749 77.21635,4.73526 76.66211,4.73526 ZM58.923767,4.5125275 C60.521477,4.5125275 57.065132,9.029892 54.097794,11.097595 C54.652145,10.04834 57.978027,4.5125275 58.923767,4.5125275 ZM44.28311,22.359268 C44.250496,22.391022 44.18515,22.391022 44.15265,22.391022 C43.826492,22.391022 43.533066,22.041275 43.369987,21.659775 C44.022186,21.532288 44.707,21.436554 45.456818,21.277802 C44.93508,21.91426 44.543922,22.295776 44.28311,22.359268 ZM86.02006,4.73526 C85.88971,4.671768 85.79198,4.6400146 85.69413,4.6400146 C85.56355,4.6400146 85.46582,4.671768 85.36809,4.73526 C82.40075,7.5986786 78.4879,12.08429 74.99871,14.15152 C74.77063,14.247253 74.54232,14.342026 74.44447,14.597 C74.44447,14.597 74.476974,14.914993 74.476974,14.914993 C74.705284,15.29744 74.83586,15.710693 75.16179,15.710693 C75.19452,15.710693 75.19452,15.710693 75.259865,15.678467 C75.944336,15.551468 78.25959,15.169968 80.34642,14.883713 C79.98776,15.710693 79.661606,16.569443 79.400795,17.365143 C78.71598,19.273605 79.10748,20.164566 79.46603,20.164566 C79.629105,20.164566 79.72684,20.068832 79.75945,19.81482 C80.15084,18.414871 80.99873,16.601196 81.94413,14.660507 C82.56383,14.597 83.118065,14.56572 83.6723,14.56572 C83.70503,14.56572 83.83538,14.024506 83.1833,13.801758 C82.98749,13.738266 82.79191,13.674759 82.4986,13.642532 C84.09619,10.652588 86.02006,7.566925 87.29184,5.5944824 C87.35707,5.498749 86.574524,4.8305206 86.02006,4.73526 ZM80.835655,13.642532 C79.89003,13.738266 78.61813,13.865265 77.02054,14.088013 C79.205215,12.434036 81.52047,10.270615 83.54207,8.171158 C82.59633,9.920868 81.683205,11.797577 80.835655,13.642532 ZM106.05111,26.119324 C106.05111,26.119324 105.95727,26.183304 105.95727,26.183304 C105.95727,26.183304 106.1374,26.189941 106.1374,26.189941 C106.182144,26.17714 106.16658,26.128326 106.05111,26.119324 ZM105.37751,25.979523 C105.33791,25.956299 105.38197,25.94255 105.39399,25.930237 C105.253685,25.945877 105.08923,25.987106 105.16511,26.070038 C105.30919,26.017914 105.336426,26.052979 105.493324,25.988525 C105.60891,25.997528 105.688446,26.043503 105.66464,26.069092 C105.708244,26.055817 105.838936,26.113174 105.90829,26.075256 C105.76981,25.99327 105.58156,25.961517 105.37751,25.979523 ZM87.134254,24.83786 C87.187584,24.836441 87.2099,24.828857 87.21265,24.821747 C87.16309,24.826492 87.12235,24.831223 87.134254,24.83786 ZM85.93846,24.75113 C85.964096,24.753021 85.985725,24.754456 86.00896,24.756348 C85.98206,24.749237 85.95494,24.745438 85.93846,24.75113 ZM94.13907,24.944016 C94.13907,24.944016 93.95253,24.916061 93.95253,24.916061 C93.9388,24.941177 94.04797,24.936905 94.13907,24.944016 ZM103.826836,25.89943 C103.86609,25.900375 103.89928,25.897064 103.93006,25.891373 C103.89779,25.889954 103.86666,25.889008 103.8345,25.888062 C103.83233,25.891846 103.83038,25.895172 103.826836,25.89943 ZM97.22989,24.986664 C97.22989,24.986664 97.286766,24.989044 97.286766,24.989044 C97.30393,24.980988 97.32007,24.971497 97.33552,24.960129 C97.33552,24.960129 97.22989,24.986664 97.22989,24.986664 ZM99.500626,25.194717 C99.5329,25.170074 99.573296,25.159653 99.620674,25.157745 C99.62239,25.145432 99.616554,25.130264 99.59996,25.110367 C99.54652,25.10373 99.52317,25.16771 99.500626,25.194717 ZM103.33428,25.572906 C103.33428,25.572906 103.40157,25.57196 103.40157,25.57196 C103.38395,25.572433 103.35477,25.572906 103.33428,25.572906 ZM29.304169,27.117401 C29.306,27.112656 29.303368,27.109344 29.30394,27.106018 C29.290207,27.112183 29.285858,27.116928 29.304169,27.117401 ZM26.558617,26.752014 C26.558617,26.752014 26.596725,26.749634 26.596725,26.749634 C26.601189,26.73732 26.605766,26.725464 26.606224,26.713623 C26.606224,26.713623 26.558617,26.752014 26.558617,26.752014 ZM83.74932,24.671036 C83.75367,24.671509 83.75504,24.671982 83.75905,24.672455 C83.81661,24.664398 83.784,24.665833 83.74932,24.671036 ZM63.6575,25.042114 C63.88684,25.09378 63.289574,25.1279 63.634155,25.182404 C63.601425,25.157745 63.942345,25.071503 63.6575,25.042114 ZM103.76721,25.882843 C103.76721,25.882843 103.671196,25.871948 103.671196,25.871948 C103.71457,25.880005 103.744095,25.882843 103.76721,25.882843 ZM78.75752,24.769135 C78.75569,24.762985 78.74402,24.754456 78.705795,24.741653 C78.71621,24.752548 78.736465,24.76155 78.75752,24.769135 ZM76.756065,24.8535 C76.70548,24.849228 76.6882,24.840225 76.61931,24.850174 C76.62572,24.8535 76.632126,24.855392 76.640366,24.857758 C76.6652,24.848282 76.69839,24.844025 76.756065,24.8535 ZM74.72588,24.881454 C74.736755,24.8862 74.75106,24.889984 74.763535,24.893784 C74.783676,24.892365 74.80714,24.890457 74.82785,24.889511 C74.82785,24.889511 74.72588,24.881454 74.72588,24.881454 ZM35.483635,26.908875 C35.4382,26.892761 35.409477,26.87381 35.386818,26.854843 C35.420578,26.899399 35.123146,26.930206 35.483635,26.908875 ZM103.83073,25.862946 C103.816765,25.877625 103.79857,25.883316 103.76721,25.882843 C103.79056,25.884735 103.81276,25.88617 103.8345,25.888062 C103.84171,25.879059 103.84412,25.870056 103.83073,25.862946 ZM76.68008,25.369125 C76.68008,25.369125 76.3577,25.363907 76.3577,25.363907 C76.447876,25.368652 76.56506,25.370544 76.68008,25.369125 ZM75.40131,25.386658 C75.34341,25.36438 75.28218,25.351578 75.219124,25.343994 C75.20585,25.349213 75.19063,25.353485 75.18193,25.361069 C75.18193,25.361069 75.40131,25.386658 75.40131,25.386658 ZM51.052063,26.079514 C51.032036,26.083786 51.00995,26.088531 50.983513,26.095154 C51.005486,26.08995 51.028946,26.084732 51.052063,26.079514 ZM104.330605,25.946823 C104.56223,25.961044 104.92959,25.99327 105.009926,25.941605 C105.009926,25.941605 104.86596,25.89943 104.86596,25.89943 C104.95019,25.907959 104.90109,25.95819 104.83769,25.961044 C104.63399,25.98236 104.55731,25.900848 104.549416,25.876678 C104.549416,25.876678 104.69693,25.88237 104.69693,25.88237 C104.56635,25.731659 104.10973,25.818863 103.81734,25.778107 C103.81734,25.778107 103.95261,25.69754 103.95261,25.69754 C103.95261,25.69754 103.640755,25.740677 103.640755,25.740677 C103.57999,25.707489 103.54291,25.648727 103.689964,25.652527 C103.48523,25.579544 103.49908,25.663422 103.324554,25.588547 C103.30567,25.57811 103.315285,25.574326 103.33428,25.572906 C103.33428,25.572906 103.12474,25.57669 103.12474,25.57669 C103.16754,25.561523 103.09865,25.504654 103.22362,25.53357 C102.86015,25.432617 102.61788,25.54068 102.48685,25.451584 C102.48685,25.451584 102.51843,25.449203 102.51843,25.449203 C102.00082,25.42694 102.460754,25.514145 102.066734,25.55632 C102.066734,25.55632 101.825264,25.356323 101.825264,25.356323 C101.825264,25.356323 101.76747,25.422195 101.76747,25.422195 C101.7146,25.415085 101.610115,25.399918 101.63232,25.373383 C101.429985,25.40419 101.66299,25.407028 101.54374,25.442108 C101.29437,25.355377 100.83684,25.406555 100.789116,25.291397 C100.69253,25.337845 101.03013,25.351578 100.75375,25.368164 C100.68635,25.241165 100.436295,25.363907 100.2073,25.290451 C100.28409,25.233109 100.50313,25.283813 100.27356,25.209412 C100.123985,25.304672 99.82003,25.149216 99.620674,25.157745 C99.605225,25.241638 99.188774,25.164856 98.85564,25.17102 C98.878525,25.141632 98.23491,25.089035 97.92809,25.041641 C97.92809,25.041641 97.937935,25.027893 97.937935,25.027893 C97.873505,25.108932 97.556274,25.076233 97.32373,25.084763 C97.33529,25.033585 97.377975,25.01558 97.504776,24.998047 C97.504776,24.998047 97.286766,24.989044 97.286766,24.989044 C97.233894,25.01416 97.165344,25.025055 97.02355,25.028854 C97.02355,25.028854 97.081345,24.96724 97.081345,24.96724 C96.79089,24.95729 96.49392,25.016052 96.12233,24.961075 C96.09921,25.019836 96.41244,25.137375 96.0167,25.16249 C96.00331,25.129791 95.99084,25.07434 96.09452,25.065338 C96.060646,25.067703 95.972984,25.087143 95.905464,25.07103 C95.905464,25.07103 96.064995,25.02269 96.064995,25.02269 C95.895966,24.993301 95.97447,25.064865 95.83886,25.054443 C95.84321,25.009415 95.739525,25.018417 95.76035,24.98288 C95.79514,24.979553 95.87811,25.006104 95.93087,24.98999 C95.77786,24.976242 95.59361,24.942123 95.53353,24.905624 C95.546005,24.931702 95.53136,24.96724 95.418976,24.970078 C95.12875,24.964874 95.32147,24.911789 95.1529,24.883835 C95.08172,24.913208 94.89747,24.874817 94.8906,24.943542 C94.8058,24.941177 94.79104,24.908005 94.758766,24.889038 C94.607704,24.913681 94.0569,24.880035 94.22433,24.956818 C94.22433,24.956818 94.26278,24.962494 94.26278,24.962494 C94.255455,24.962967 94.2471,24.963913 94.238174,24.964874 C93.744705,25.021744 93.2169,24.904205 92.7279,24.92601 C92.7279,24.92601 92.72916,24.903732 92.72916,24.903732 C92.43722,24.924591 92.08016,24.909424 91.87142,24.956818 C91.78525,24.955872 91.66852,24.912262 91.70571,24.885727 C91.482666,24.900421 91.45749,24.925537 91.136024,24.885254 C91.36044,24.846863 91.05912,24.848282 91.36582,24.857285 C91.07663,24.835022 91.011284,24.798523 90.69989,24.85823 C90.806206,24.800415 90.48257,24.782883 90.34478,24.799469 C90.34478,24.799469 90.54734,24.84259 90.54734,24.84259 C90.39262,24.850174 90.25723,24.843552 90.1199,24.83786 C90.1199,24.83786 90.19463,24.761078 90.19463,24.761078 C89.602745,24.663925 89.12553,24.914627 88.675316,24.75682 C88.51842,24.810379 88.996895,24.795685 88.856476,24.85823 C88.58411,24.847336 88.30064,24.735962 88.21526,24.735489 C87.842186,24.691895 87.86668,24.847336 87.476204,24.817474 C87.5261,24.84497 87.57302,24.9189 87.2812,24.943542 C87.0086,24.932648 86.94623,24.827438 87.11846,24.805634 C87.18392,24.803741 87.21539,24.812271 87.21265,24.821747 C87.300766,24.811798 87.41635,24.800415 87.30843,24.770096 C87.30843,24.770096 87.27296,24.797577 87.27296,24.797577 C87.1378,24.769135 86.762665,24.771515 86.850784,24.726486 C86.64468,24.752075 86.762665,24.771515 86.915215,24.78572 C86.5656,24.745438 86.36887,24.783356 86.00896,24.756348 C86.06618,24.771515 86.11882,24.803741 86.06194,24.803268 C85.53391,24.770096 85.8294,24.855865 85.47166,24.868668 C85.26841,24.826965 85.54444,24.768188 85.18441,24.804214 C84.964455,24.776245 85.13772,24.730759 85.22515,24.70848 C84.89705,24.76204 84.61198,24.674835 84.42452,24.664886 C84.42452,24.664886 84.59733,24.642609 84.59733,24.642609 C84.49399,24.656342 84.4093,24.655869 84.32313,24.655869 C84.32313,24.655869 84.42189,24.710846 84.42189,24.710846 C84.32038,24.70137 84.234436,24.700897 84.23638,24.678146 C84.13178,24.714172 84.316605,24.769608 84.10912,24.819382 C83.973854,24.791412 83.69725,24.850174 83.65033,24.777191 C84.075935,24.801361 83.60318,24.703735 83.96321,24.691422 C83.893745,24.699951 83.80906,24.699951 83.70721,24.690475 C83.691986,24.681946 83.72163,24.675308 83.74932,24.671036 C83.34191,24.606583 83.562325,24.753983 83.140495,24.752548 C83.193825,24.711792 83.042305,24.675308 82.973526,24.68431 C83.143585,24.68431 83.05512,24.752548 82.899254,24.784775 C82.6286,24.754456 82.605255,24.810379 82.46358,24.807526 C82.46358,24.807526 82.6254,24.821747 82.6254,24.821747 C82.57081,24.86345 82.435425,24.858704 82.24694,24.872452 C82.23069,24.840698 82.41803,24.8497 82.35074,24.835968 C82.141655,24.909424 81.87718,24.763458 81.58547,24.814163 C81.45009,24.786682 81.57185,24.736908 81.45295,24.71843 C81.12599,24.773407 81.09818,24.663925 80.7544,24.7099 C80.853966,24.764877 80.87125,24.75113 80.62932,24.806107 C80.62932,24.806107 81.19454,24.764404 81.19454,24.764404 C81.19454,24.764404 80.83222,24.846863 80.83222,24.846863 C81.00285,24.846863 81.192024,24.80989 81.29445,24.818909 C81.12176,24.864868 81.139496,24.851608 81.221436,24.896622 C80.987404,24.81511 80.758865,24.947327 80.488556,24.892838 C80.488556,24.892838 80.495766,24.755875 80.495766,24.755875 C80.0895,24.696152 79.77536,24.832169 79.24813,24.801834 C79.24813,24.801834 79.41762,24.824585 79.41762,24.824585 C79.34758,24.879562 79.09238,24.835495 78.921974,24.858704 C78.93742,24.812744 78.83065,24.797104 78.75752,24.769135 C78.76668,24.803268 78.37174,24.770096 78.32482,24.86203 C78.32482,24.86203 78.08896,24.803741 78.08896,24.803741 C77.663124,24.783356 77.60476,24.93927 77.19575,24.926956 C77.31831,24.876251 77.132,24.845444 77.40552,24.807053 C77.26899,24.807999 77.146194,24.801361 77.14436,24.833115 C77.064255,24.80516 76.76648,24.899475 76.640366,24.857758 C76.583145,24.878616 76.56495,24.926483 76.41148,24.925537 C76.39466,24.916061 76.41183,24.902786 76.41183,24.902786 C76.41148,24.925537 76.1723,24.936432 76.306885,24.985718 C75.88437,24.848282 75.13158,25.01178 74.763535,24.893784 C74.46576,24.913208 74.10699,24.932175 73.83656,24.941177 C73.85373,24.926956 73.837135,24.918427 73.88829,24.92221 C73.51453,24.8862 73.661125,25.057281 73.23575,25.017471 C73.017624,24.946854 73.460625,24.973404 73.32478,24.947815 C73.26333,24.79805 72.81266,24.977661 72.52541,24.894257 C72.52541,24.894257 72.59442,24.884308 72.59442,24.884308 C72.37504,24.836914 72.0625,24.950653 71.70556,24.945908 C71.70556,24.945908 71.72261,24.932175 71.70705,24.923645 C71.46455,25.004196 71.00312,25.037857 70.66037,25.06723 C70.765884,25.006104 70.81567,25.032166 70.749176,24.97435 C70.59548,24.985718 70.796326,25.069138 70.48951,25.09282 C70.38903,25.0625 70.1669,25.039276 70.136116,24.975769 C70.136116,24.975769 70.425766,24.96582 70.425766,24.96582 C70.275505,24.886673 70.05074,24.977188 69.89785,24.96582 C69.89785,24.96582 69.916504,24.929321 69.916504,24.929321 C69.4727,24.950653 69.46858,25.042114 68.99125,25.04544 C68.99125,25.04544 69.04126,25.071503 69.04126,25.071503 C68.78262,25.16771 68.82142,25.026001 68.5629,25.09851 C68.5629,25.09851 68.48199,25.008942 68.48199,25.008942 C68.31044,25.033585 67.8814,25.11084 67.573326,25.136429 C67.746475,25.064392 68.10651,25.019363 68.329094,24.974823 C68.15846,24.977188 67.749565,24.995667 67.66179,25.04306 C67.73034,25.032166 67.8164,25.007523 67.88472,25.019836 C67.677124,25.097565 67.40281,25.13974 67.06292,25.14685 C67.11854,24.967712 66.176,25.124573 65.92572,24.992828 C65.326164,25.072922 64.73199,24.996628 64.03184,25.028366 C64.28441,25.158707 63.827446,25.037857 63.87471,25.178604 C63.714035,25.19188 63.65178,25.191406 63.63587,25.18335 C63.63587,25.18335 63.669632,25.188553 63.669632,25.188553 C63.65487,25.185715 63.64663,25.184769 63.634155,25.182404 C63.634155,25.182404 63.634155,25.182877 63.634155,25.182877 C63.634155,25.182877 63.137825,25.112732 63.137825,25.112732 C63.01938,25.075287 63.291977,25.077179 63.275955,25.045914 C62.91844,25.04544 63.124207,24.98999 62.886513,24.959183 C62.936638,25.008942 62.764748,25.035477 62.560356,25.022217 C62.560356,25.022217 62.84932,25.079086 62.84932,25.079086 C62.35253,25.169601 62.41387,24.97197 61.913193,25.063446 C61.913193,25.063446 62.070778,25.013687 62.070778,25.013687 C61.8134,25.048752 61.11817,25.04448 60.869034,25.166763 C60.8228,25.15207 60.761116,25.115097 60.874413,25.100876 C60.256775,25.104675 59.50524,25.267227 59.02333,25.214142 C59.02333,25.214142 59.068764,25.178131 59.068764,25.178131 C58.95398,25.192352 58.870895,25.25064 58.72544,25.221252 C58.732307,25.206558 58.770416,25.184769 58.7172,25.184769 C58.656662,25.19899 58.413704,25.257278 58.260353,25.242584 C58.260353,25.242584 58.389214,25.198517 58.389214,25.198517 C57.785652,25.175293 57.469337,25.32788 56.965797,25.370544 C56.96305,25.268646 56.488235,25.253006 56.251114,25.245422 C56.251114,25.245422 56.25878,25.230255 56.25878,25.230255 C55.557602,25.245895 55.072144,25.36438 54.42521,25.430725 C54.01757,25.336426 53.0589,25.439728 52.40899,25.408447 C52.50878,25.422195 52.396515,25.489014 52.282074,25.50418 C52.12918,25.490448 51.865623,25.594223 51.885193,25.49945 C51.885193,25.49945 51.939438,25.498505 51.939438,25.498505 C51.82065,25.412247 51.509598,25.450638 51.26584,25.459167 C51.26584,25.459167 51.231506,25.583328 51.231506,25.583328 C50.585373,25.433105 49.564903,25.725983 49.209106,25.584747 C49.057014,25.622665 48.866356,25.632141 48.715523,25.67006 C48.715523,25.67006 48.720444,25.603714 48.720444,25.603714 C48.29335,25.607971 48.080147,25.610336 47.55429,25.652527 C47.55429,25.652527 47.659233,25.599442 47.659233,25.599442 C47.3618,25.610336 47.294167,25.807022 47.020424,25.825974 C47.020424,25.825974 46.932762,25.732132 46.932762,25.732132 C46.41469,25.761047 45.8854,25.703232 45.37831,25.819336 C45.38598,25.804642 45.399597,25.775742 45.483253,25.766739 C45.23915,25.77716 44.53591,25.751099 44.63227,25.88095 C44.621056,25.793274 44.09703,25.900375 43.819626,25.955353 C43.819626,25.955353 43.859337,25.888535 43.859337,25.888535 C43.627937,25.984741 43.621758,26.007492 43.293427,26.049194 C43.214806,26.044922 43.2219,26.0018 43.32673,26.012222 C43.064316,25.992798 43.127373,26.084732 42.809685,26.068619 C42.809685,26.068619 42.924927,26.020752 42.924927,26.020752 C42.656677,26.0307 42.679222,26.05156 42.534683,26.108429 C42.36783,26.143967 42.025536,26.121231 41.98239,26.064835 C41.948517,26.102737 41.804665,26.15866 41.645706,26.150604 C41.623047,26.130234 41.67981,26.113174 41.70819,26.104645 C41.257523,26.086151 41.046837,26.218384 40.734985,26.173355 C40.727203,26.152023 40.70649,26.14302 40.68051,26.137817 C41.036423,26.117905 41.323097,26.104645 41.29666,26.111267 C41.292885,26.05156 41.004723,26.05867 41.22834,25.962463 C41.000374,26.021225 40.612076,26.142075 40.330093,26.13118 C40.316246,26.125961 40.302513,26.120758 40.291756,26.112701 C40.291756,26.112701 40.320366,26.104156 40.320366,26.104156 C40.255363,26.101791 40.1978,26.111267 40.143898,26.124542 C40.053947,26.119797 39.996727,26.116013 39.91078,26.12027 C39.87462,26.072891 39.579704,26.113647 39.43631,26.119324 C39.452217,26.18425 39.26396,26.184723 39.44306,26.22786 C39.42006,26.224533 39.469727,26.218857 39.564827,26.210327 C39.586227,26.207 39.61152,26.204636 39.62548,26.19989 C39.62548,26.19989 39.615982,26.206055 39.615982,26.206055 C39.710052,26.199417 39.83262,26.190414 39.97178,26.180466 C39.86077,26.219803 39.74427,26.25534 39.58348,26.228333 C39.51264,26.27478 39.43448,26.322632 39.390076,26.345383 C39.188316,26.266724 38.807343,26.2397 38.751266,26.18663 C38.316162,26.24965 37.72267,26.271927 37.45488,26.409363 C37.331398,26.432114 37.30977,26.382355 37.26216,26.365295 C37.333344,26.349655 37.41883,26.346329 37.456596,26.326431 C37.20986,26.371933 36.72074,26.37999 36.666267,26.468613 C36.350525,26.446808 36.837814,26.380936 36.407974,26.41742 C36.407974,26.41742 36.464737,26.38852 36.464737,26.38852 C35.610664,26.296097 35.098656,26.679504 34.150284,26.543488 C34.215973,26.551544 34.248703,26.555328 34.262665,26.569077 C33.188866,26.538269 32.056816,26.725464 30.996521,26.622635 C30.695656,26.60225 30.66407,26.6577 30.481194,26.701767 C30.481194,26.701767 30.415276,26.632584 30.415276,26.632584 C30.415276,26.632584 30.102509,26.716934 30.102509,26.716934 C29.657562,26.779022 29.331749,26.552017 28.769157,26.660065 C28.769157,26.660065 28.841599,26.707458 28.841599,26.707458 C28.639381,26.698456 28.200615,26.732101 28.235062,26.677124 C28.214233,26.68518 28.168114,26.72499 28.089493,26.698929 C28.089493,26.698929 28.08377,26.66243 28.08377,26.66243 C28.08377,26.66243 27.586067,26.717407 27.586067,26.717407 C27.20166,26.683289 27.649124,26.574295 27.088593,26.552963 C26.879967,26.561493 26.491325,26.643951 26.568802,26.670013 C26.65303,26.674286 26.783379,26.698456 26.788528,26.7359 C26.788528,26.7359 26.596725,26.749634 26.596725,26.749634 C26.558617,26.857224 26.40664,26.963379 26.875504,27.052002 C26.875504,27.052002 27.205551,26.994186 27.205551,26.994186 C27.205551,26.994186 27.310036,27.049622 27.310036,27.049622 C27.310036,27.049622 27.033546,27.045364 27.033546,27.045364 C27.188957,27.098907 27.289665,27.057678 27.401474,27.031143 C27.427223,27.059586 27.472885,27.08043 27.537773,27.09134 C27.537773,27.09134 27.862099,26.993225 27.862099,26.993225 C27.900436,27.035889 27.716072,27.074738 27.932022,27.10176 C28.08377,27.055786 27.788857,27.004608 28.039139,26.977112 C28.19535,27.028305 28.149117,27.067642 28.333824,27.028778 C28.359344,27.05626 28.320206,27.073792 28.246964,27.085175 C28.41153,27.05484 28.681381,27.073318 28.76641,27.017395 C28.929832,27.078064 29.320076,27.00319 29.30394,27.106018 C29.355553,27.081375 29.592674,27.02356 29.743164,27.018341 C29.468735,27.142517 30.307014,27.02214 30.235718,27.154358 C30.43805,27.040146 30.971115,27.095123 31.330345,27.025925 C31.310432,27.034943 31.27118,27.053421 31.239365,27.048676 C31.442383,27.052948 31.502121,27.084702 31.633156,27.102707 C31.65696,27.010773 31.972473,26.982803 32.140816,26.92215 C32.392014,27.001755 31.993073,27.033508 32.073524,27.11502 C32.05899,27.042038 32.503365,27.028305 32.416847,26.969528 C32.608765,27.017868 32.581528,26.99086 32.682007,27.062897 C32.711533,26.948212 32.858475,27.038254 33.013657,26.963379 C33.290604,27.008865 33.088387,27.06717 33.38925,27.020721 C33.534363,27.050568 33.267143,27.100815 33.267143,27.100815 C33.575104,27.09085 33.408363,27.011719 33.471764,26.960052 C33.83786,26.921677 33.644226,27.016449 33.771027,27.055313 C33.999565,27.024506 34.1718,26.936829 34.342773,26.933044 C34.356163,26.946793 34.38958,26.950577 34.35147,26.969528 C34.590652,26.891815 35.070618,26.934464 35.34825,26.834946 C35.369537,26.840637 35.380524,26.847733 35.38613,26.853897 C35.338295,26.813614 35.329025,26.77002 35.336807,26.738266 C35.474365,26.730682 35.58938,26.67192 35.644196,26.725464 C35.55974,26.727844 35.553787,26.751053 35.51522,26.77002 C35.51522,26.77002 35.65827,26.738739 35.65827,26.738739 C35.792397,26.81314 35.462692,26.776184 35.465782,26.836365 C35.746048,26.796555 36.07003,26.712204 36.28678,26.723572 C36.33622,26.800354 35.784157,26.776657 36.075638,26.83162 C36.075638,26.83162 35.740555,26.819305 35.740555,26.819305 C36.002052,26.929733 35.537308,26.820724 35.778664,26.941574 C36.219032,26.941101 36.26767,26.875702 36.706894,26.875702 C36.80291,26.825943 36.670616,26.812668 36.766632,26.763382 C37.38404,26.649643 37.267998,26.93399 37.71924,26.803192 C37.83448,26.743958 37.87419,26.641586 38.20298,26.675705 C38.20298,26.675705 38.09735,26.770493 38.09735,26.770493 C38.522614,26.75438 38.331955,26.628784 38.780334,26.662918 C38.70343,26.701767 38.448456,26.711731 38.513344,26.718353 C38.80574,26.771439 38.71396,26.655807 38.935287,26.643005 C38.935287,26.643005 38.9861,26.718353 38.9861,26.718353 C39.43734,26.679977 39.931496,26.5923 40.43103,26.548218 C40.404823,26.573822 40.32071,26.603195 40.439156,26.620255 C41.06778,26.542542 41.786926,26.550598 42.39827,26.562439 C42.39827,26.562439 42.626694,26.4814 42.626694,26.4814 C42.680824,26.479034 42.72889,26.506042 42.671097,26.522629 C42.909935,26.534958 42.680824,26.479034 42.79332,26.445862 C42.928017,26.43306 42.973907,26.474762 42.889565,26.499878 C43.304756,26.418839 44.074715,26.306519 44.52012,26.356293 C44.52012,26.356293 44.435204,26.380936 44.435204,26.380936 C44.780357,26.390411 44.81492,26.220749 45.137184,26.267197 C45.137184,26.267197 45.07676,26.282837 45.07676,26.282837 C45.82406,26.272873 46.6446,26.166718 47.219093,26.238281 C47.32209,26.135437 47.95941,26.245865 48.000153,26.10701 C48.42965,26.153458 48.308914,26.18425 48.910988,26.200363 C49.071434,26.198471 49.14525,26.102737 49.34266,26.078568 C49.34266,26.078568 49.351128,26.149658 49.351128,26.149658 C49.351128,26.149658 49.61606,26.061508 49.61606,26.061508 C49.61606,26.061508 49.76346,26.140182 49.76346,26.140182 C49.76346,26.140182 49.948166,26.113174 49.948166,26.113174 C49.87401,26.112701 49.789436,26.088531 49.79962,26.0672 C50.088127,26.020279 50.509384,26.08284 50.518425,26.119324 C50.518425,26.119324 51.201866,26.027863 51.201866,26.027863 C51.191338,26.05014 51.12336,26.064362 51.052063,26.079514 C51.306236,26.027863 51.077927,26.161514 51.38623,26.085205 C51.340454,26.070984 51.408546,26.042084 51.415413,26.026443 C51.5849,26.062454 51.96599,26.045395 52.24694,26.014587 C52.24694,26.014587 52.195213,26.066254 52.195213,26.066254 C52.70482,26.055817 53.26741,25.99327 53.839043,25.971466 C53.63305,25.956772 53.676308,25.869568 53.84362,25.854889 C53.84362,25.854889 53.914,25.927399 53.914,25.927399 C54.02009,25.876205 53.737534,25.906067 53.95726,25.839722 C54.17115,25.839722 54.104546,25.919342 53.98301,25.949661 C53.98301,25.949661 54.241417,25.912704 54.241417,25.912704 C54.257668,25.934494 54.197357,25.948715 54.182823,25.978104 C54.287308,25.926926 54.634064,26.035446 54.78421,25.94777 C54.78421,25.94777 54.79989,25.969574 54.79989,25.969574 C55.371178,25.946823 55.629128,25.909851 56.094444,25.886642 C56.100853,25.821228 56.283386,25.828339 56.419914,25.770523 C56.762894,25.77858 57.14467,25.815552 57.556656,25.794693 C57.844933,25.751572 57.639053,25.736877 57.7678,25.69281 C57.79149,25.751572 58.202904,25.730713 57.991074,25.78096 C58.485344,25.753464 58.622444,25.745407 59.24626,25.674316 C59.177483,25.652527 59.100693,25.644943 59.139603,25.622665 C59.25267,25.608917 59.39881,25.639252 59.38359,25.668167 C59.38359,25.668167 59.353836,25.675262 59.353836,25.675262 C60.053185,25.562958 60.981186,25.79422 61.53611,25.652054 C61.53611,25.652054 61.504868,25.65915 61.504868,25.65915 C61.504868,25.65915 62.082794,25.575272 62.082794,25.575272 C62.350014,25.57669 61.92418,25.62503 62.12285,25.654892 C62.745407,25.537354 63.11196,25.64067 63.62523,25.559158 C64.029434,25.723602 65.04018,25.503708 65.582054,25.602753 C65.582054,25.602753 65.54967,25.56247 65.54967,25.56247 C65.68768,25.518402 65.7187,25.581436 65.821465,25.588547 C65.806015,25.556793 65.66949,25.555374 65.75532,25.530731 C66.932915,25.451584 68.19016,25.527405 69.399574,25.54068 C69.84189,25.542572 69.64562,25.321732 70.20524,25.407974 C70.20524,25.407974 70.04868,25.48854 70.04868,25.48854 C70.938805,25.375748 71.87287,25.455368 72.74491,25.362015 C72.69307,25.380966 72.69204,25.40419 72.60678,25.404663 C72.79229,25.45726 73.28896,25.39566 73.29137,25.350159 C73.42744,25.353012 73.32364,25.390442 73.40775,25.412247 C73.593376,25.442108 73.871124,25.333572 73.970345,25.386658 C73.98717,25.39566 73.91862,25.40561 73.88486,25.410828 C74.00502,25.38144 74.44676,25.408447 74.33026,25.346375 C74.65871,25.372437 74.957054,25.309402 75.219124,25.343994 C75.38861,25.269592 75.7808,25.370544 75.83356,25.268646 C75.81147,25.373856 76.409424,25.345428 76.616104,25.29329 C76.54721,25.325989 76.79681,25.323624 76.716125,25.368652 C76.95256,25.36438 77.16908,25.341629 77.1272,25.288086 C77.564476,25.409409 78.00221,25.178604 78.249405,25.337372 C78.9515,25.274338 79.601524,25.22931 80.23358,25.199936 C80.21161,25.303726 79.534805,25.216522 79.56284,25.325989 C80.16217,25.276703 80.50744,25.185715 81.10242,25.20752 C81.25657,25.22078 81.01533,25.253479 80.963486,25.2715 C81.562355,25.225052 82.12197,25.27481 82.65481,25.214615 C82.653435,25.224579 82.59587,25.235474 82.541626,25.244003 C82.6468,25.239746 82.78607,25.257751 82.77394,25.209885 C82.77394,25.209885 82.67163,25.224106 82.67163,25.224106 C82.50352,25.155853 83.08831,25.077179 83.10708,25.040695 C82.92912,25.177185 83.63385,25.073868 83.35107,25.246368 C83.42019,25.237366 83.506935,25.214615 83.49091,25.182877 C83.59357,25.19188 83.6263,25.21083 83.52227,25.246841 C83.89855,25.22078 83.764656,25.170547 84.105804,25.17102 C84.104546,25.193771 84.03577,25.202774 84.00063,25.229782 C84.173096,25.184769 84.34647,25.139267 84.63475,25.158234 C84.61747,25.172913 84.651,25.19046 84.56494,25.19046 C85.0599,25.182404 85.408485,25.069138 85.95151,25.111786 C85.79129,25.21225 86.136215,25.144485 86.16494,25.231216 C86.16494,25.231216 86.45688,25.206558 86.45688,25.206558 C86.45688,25.206558 86.339806,25.16391 86.339806,25.16391 C86.59558,25.16629 86.8216,25.103256 87.04144,25.13263 C87.04144,25.13263 86.85147,25.16771 86.85147,25.16771 C86.85147,25.16771 87.330635,25.152542 87.330635,25.152542 C87.330635,25.152542 87.059525,25.118896 87.059525,25.118896 C87.31839,25.074814 87.031944,25.009415 87.372406,25.034058 C87.30317,25.042587 87.628296,25.035477 87.76139,25.087143 C87.76139,25.087143 87.76059,25.087143 87.76059,25.087143 C87.88716,25.06012 88.01751,25.031693 88.206566,25.053024 C88.25566,25.081451 88.16674,25.149216 88.19867,25.16771 C88.32364,25.095673 88.79765,25.148743 88.956154,25.071976 C88.9034,25.089981 88.90042,25.135483 88.9177,25.144958 C88.9177,25.144958 89.02276,25.086197 89.02276,25.086197 C89.14109,25.105148 89.15837,25.114624 89.13903,25.151123 C89.495285,25.163437 89.026306,25.040222 89.44905,25.089981 C89.41586,25.094727 89.431656,25.103256 89.36242,25.111786 C89.78711,25.138794 90.18342,25.078613 90.57355,25.11084 C90.68799,25.19899 90.2324,25.129791 90.36366,25.204193 C90.92637,25.19188 91.5297,25.108932 92.07398,25.136902 C92.07398,25.136902 91.97259,25.125519 91.97259,25.125519 C92.04972,25.003723 92.377365,25.190933 92.6534,25.137848 C92.58588,25.145905 92.56402,25.20514 92.58244,25.191406 C92.95472,25.217468 93.34496,25.171967 93.910645,25.146378 C93.910645,25.146378 93.83992,25.176712 93.83992,25.176712 C94.058846,25.210358 94.41796,25.204193 94.654625,25.22647 C94.72592,25.19661 94.86142,25.206085 94.78028,25.157272 C95.50572,25.356796 96.17909,25.104202 96.82179,25.280975 C96.7442,25.278122 96.635826,25.3004 96.69751,25.303238 C96.69751,25.303238 97.25083,25.29898 97.25083,25.29898 C97.20975,25.244003 97.18011,25.263443 97.06601,25.216522 C97.13742,25.18808 97.29466,25.170547 97.43165,25.176239 C97.18125,25.200882 97.42959,25.262482 97.53522,25.297562 C97.51805,25.28003 97.55582,25.263443 97.54746,25.246368 C97.83105,25.355377 97.60159,25.140686 97.99218,25.22647 C97.99218,25.22647 97.96975,25.253479 97.96975,25.253479 C98.117836,25.246841 98.25597,25.217468 98.41447,25.234055 C98.47672,25.299454 98.25585,25.254425 98.24269,25.304672 C98.465965,25.314621 98.69061,25.209885 98.888596,25.286179 C98.792694,25.297089 98.656395,25.289032 98.56049,25.301346 C98.775986,25.385712 98.80242,25.370071 98.96493,25.392334 C98.96493,25.392334 98.94902,25.389496 98.94902,25.389496 C98.94902,25.389496 99.32404,25.447311 99.32404,25.447311 C99.32404,25.447311 99.2294,25.421722 99.2294,25.421722 C99.51985,25.278595 99.799545,25.427887 100.18338,25.353012 C99.81019,25.42456 100.11838,25.406082 100.08473,25.474335 C100.179146,25.501343 100.32288,25.534515 100.279854,25.550629 C100.461815,25.508453 100.57191,25.618393 100.829285,25.555374 C100.83844,25.578583 101.01857,25.574799 100.97348,25.627884 C101.20511,25.631195 100.922554,25.583328 100.94453,25.556793 C101.30673,25.514618 101.76999,25.721237 102.29001,25.672897 C102.73427,25.677643 102.825134,25.605133 103.23781,25.618393 C103.37102,25.671005 103.11501,25.686646 103.11501,25.686646 C103.33302,25.746353 103.50045,25.760574 103.71297,25.760101 C103.66799,25.775269 103.70953,25.796585 103.769844,25.829773 C103.9383,25.844925 103.89321,25.760101 104.10973,25.822662 C104.068306,25.84256 104.01429,25.875732 103.93006,25.891373 C104.13033,25.8947 104.33049,25.88237 104.53774,25.88948 C104.586266,25.935928 104.40602,25.931656 104.330605,25.946823 ZM39.70582,26.140656 C39.702957,26.14302 39.69815,26.147293 39.69506,26.149185 C39.703415,26.136383 39.713142,26.124542 39.73065,26.114594 C39.82541,26.099426 39.85814,26.110794 39.871986,26.123123 C39.827126,26.127853 39.77471,26.133545 39.70582,26.140656 ZM40.282944,26.540161 C40.31373,26.537796 40.3563,26.533539 40.430573,26.526428 C40.430573,26.526428 40.430687,26.527847 40.430687,26.527847 C40.369003,26.53305 40.316475,26.537796 40.282944,26.540161 ZM40.771263,26.502731 C40.748604,26.4814 40.770004,26.456757 40.830658,26.454391 C40.79873,26.47145 40.941437,26.476181 41.032417,26.489456 C40.95906,26.493256 40.867737,26.497986 40.771263,26.502731 ZM39.564827,26.210327 C39.551094,26.212692 39.543655,26.216003 39.525803,26.217422 C39.545715,26.221222 39.564598,26.225006 39.58348,26.228333 C39.594696,26.220749 39.60591,26.213165 39.615982,26.206055 C39.5987,26.207474 39.58085,26.208893 39.564827,26.210327 ZM94.211624,24.95491 C94.22227,24.958237 94.23188,24.961075 94.238174,24.964874 C94.229706,24.961548 94.22982,24.959656 94.22433,24.956818 C94.22433,24.956818 94.211624,24.95491 94.211624,24.95491 ZM49.35273,26.166718 C49.35273,26.166718 49.351128,26.149658 49.351128,26.149658 C49.351128,26.149658 49.29917,26.166718 49.29917,26.166718 C49.29917,26.166718 49.35273,26.166718 49.35273,26.166718 ZM97.53522,25.297562 C97.54128,25.303238 97.5533,25.309875 97.57779,25.31604 C97.57619,25.311783 97.55776,25.304672 97.53522,25.297562 ZM98.96493,25.392334 C98.96493,25.392334 99.16554,25.428833 99.16554,25.428833 C99.07891,25.409882 99.015625,25.399445 98.96493,25.392334 ZM100.06116,25.500397 C100.07592,25.490448 100.08061,25.481918 100.08473,25.474335 C100.08473,25.474335 100.08267,25.473862 100.08267,25.473862 C100.08267,25.473862 100.06116,25.500397 100.06116,25.500397 ZM82.541626,25.244003 C82.52675,25.244476 82.512215,25.24495 82.499054,25.246841 C82.39926,25.260117 82.467125,25.254898 82.541626,25.244003 ZM87.76059,25.087143 C87.7052,25.099457 87.6505,25.110367 87.592705,25.11795 C87.68552,25.12268 87.75773,25.1241 87.76059,25.087143 ZM76.71544,25.369598 C76.71544,25.369598 76.716125,25.368652 76.716125,25.368652 C76.70365,25.368652 76.692665,25.368652 76.68008,25.369125 C76.68008,25.369125 76.71544,25.369598 76.71544,25.369598 ZM87.349976,25.116043 C87.4429,25.129318 87.52061,25.12648 87.592705,25.11795 C87.5166,25.113205 87.42688,25.106094 87.349976,25.116043 ZM104.849365,26.045868 C104.84914,26.04161 104.8528,26.038284 104.85715,26.036392 C104.85715,26.036392 104.79741,26.03592 104.79741,26.03592 C104.79741,26.03592 104.849365,26.045868 104.849365,26.045868 ZM104.85715,26.036392 C104.85715,26.036392 104.91666,26.036865 104.91666,26.036865 C104.88976,26.033081 104.86653,26.030228 104.85715,26.036392 ZM105.04174,26.037338 C105.04174,26.037338 104.91666,26.036865 104.91666,26.036865 C104.959,26.042557 105.01107,26.052032 105.04174,26.037338 ZM102.91806,25.772415 C103.022316,25.788528 103.17475,25.853943 103.32272,25.856308 C103.32272,25.856308 103.33863,25.839249 103.33863,25.839249 C103.26562,25.866257 103.022545,25.743042 102.91806,25.772415 ZM101.50048,25.288086 C101.039856,25.170074 101.591576,25.35254 101.106575,25.298035 C101.106575,25.298035 101.47553,25.351105 101.47553,25.351105 C101.41316,25.319824 101.33111,25.278595 101.50048,25.288086 ZM99.9585,25.168655 C100.15889,25.172913 99.95896,25.132156 99.970634,25.118896 C99.84212,25.131683 99.811104,25.13501 99.9585,25.168655 ZM91.622055,24.861557 C91.622055,24.861557 91.64288,24.802322 91.64288,24.802322 C91.48862,24.809418 91.64117,24.825531 91.622055,24.861557 ZM90.175865,25.192352 C90.175865,25.192352 90.24762,25.138794 90.24762,25.138794 C90.24762,25.138794 90.02629,25.15538 90.02629,25.15538 C90.02629,25.15538 90.175865,25.192352 90.175865,25.192352 ZM89.15482,24.718903 C89.15482,24.718903 88.897675,24.739761 88.897675,24.739761 C88.897675,24.739761 89.08753,24.727432 89.08753,24.727432 C89.08753,24.727432 89.15482,24.718903 89.15482,24.718903 ZM75.08626,24.818909 C75.08626,24.818909 75.133865,24.89093 75.133865,24.89093 C75.23778,24.876251 75.25838,24.794266 75.08626,24.818909 ZM69.044464,25.00325 C68.97786,24.968185 68.80723,24.948288 68.70343,24.986664 C68.839386,24.988571 68.97557,25.01416 69.044464,25.00325 ZM51.044624,25.47528 C51.044624,25.47528 50.816658,25.506088 50.816658,25.506088 C50.816658,25.506088 50.924347,25.505127 50.924347,25.505127 C50.924347,25.505127 51.044624,25.47528 51.044624,25.47528 Z"/>
</svg>