<svg xmlns="http://www.w3.org/2000/svg"
     xmlns:xlink="http://www.w3.org/1999/xlink"
     width="41px" height="31px"  viewBox="0 0 41 31">
    <path fill-rule="evenodd"  fill="#a2a2a2"
          d="M34.482666,1.9995117 C34.482666,1.9995117 6.524231,1.9995117 6.524231,1.9995117 C4.0285034,1.9995117 1.9998169,4.0166016 1.9998169,6.498535 C1.9998169,6.498535 1.9998169,25.500488 1.9998169,25.500488 C1.9998169,27.981934 4.0285034,29.999512 6.524231,29.999512 C6.524231,29.999512 34.474976,29.999512 34.474976,29.999512 C36.970703,29.999512 38.99951,27.981934 38.99951,25.500488 C38.99951,25.500488 38.99951,6.5063477 38.99951,6.5063477 C39.00708,4.024414 36.97827,1.9995117 34.482666,1.9995117 ZM36.940063,25.500488 C36.940063,26.847656 35.837646,27.943848 34.482666,27.943848 C34.482666,27.943848 6.524231,27.943848 6.524231,27.943848 C5.1692505,27.943848 4.0668335,26.847656 4.0668335,25.500488 C4.0668335,25.500488 4.0668335,6.5063477 4.0668335,6.5063477 C4.0668335,5.1586914 5.1692505,4.0625 6.524231,4.0625 C6.524231,4.0625 34.474976,4.0625 34.474976,4.0625 C35.83008,4.0625 36.932495,5.1586914 36.932495,6.5063477 C36.932495,6.5063477 36.932495,25.500488 36.932495,25.500488 C36.932495,25.500488 36.940063,25.500488 36.940063,25.500488 ZM25.334229,15.763184 C25.334229,15.763184 34.38318,7.6938477 34.38318,7.6938477 C34.8042,7.3134766 34.842407,6.6660156 34.459717,6.239258 C34.076904,5.820801 33.426147,5.783203 32.997437,6.163574 C32.997437,6.163574 20.518799,17.30127 20.518799,17.30127 C20.518799,17.30127 18.084229,15.13916 18.084229,15.13916 C18.076538,15.131348 18.06897,15.124023 18.06897,15.115723 C18.01538,15.062988 17.961792,15.017578 17.900635,14.97168 C17.900635,14.97168 7.9941406,6.15625 7.9941406,6.15625 C7.5654297,5.7749023 6.914673,5.8134766 6.5319214,6.239258 C6.149109,6.6660156 6.187439,7.3134766 6.61615,7.6938477 C6.61615,7.6938477 15.772339,15.832031 15.772339,15.832031 C15.772339,15.832031 6.65448,24.319824 6.65448,24.319824 C6.240967,24.708008 6.2180786,25.355469 6.6084595,25.774414 C6.8151245,25.987305 7.0908203,26.101562 7.366394,26.101562 C7.6189575,26.101562 7.871643,26.010254 8.070679,25.827148 C8.070679,25.827148 17.326294,17.217285 17.326294,17.217285 C17.326294,17.217285 19.837402,19.448242 19.837402,19.448242 C20.036499,19.623047 20.281372,19.707031 20.526367,19.707031 C20.771484,19.707031 21.024048,19.615723 21.215454,19.44043 C21.215454,19.44043 23.79541,17.141113 23.79541,17.141113 C23.79541,17.141113 32.997437,25.83496 32.997437,25.83496 C33.196533,26.02539 33.456787,26.117188 33.709473,26.117188 C33.984985,26.117188 34.25293,26.010254 34.459717,25.796875 C34.850098,25.385742 34.834717,24.731445 34.421387,24.343262 C34.421387,24.343262 25.334229,15.763184 25.334229,15.763184 Z"/>
</svg>