<svg xmlns="http://www.w3.org/2000/svg"
     xmlns:xlink="http://www.w3.org/1999/xlink"
     width="40px" height="39px"  viewBox="0 0 40 39">
    <path fill-rule="evenodd"  fill="#a2a2a2"
          d="M37.07666,28.60791 C37.07666,28.60791 32.319824,23.850586 32.319824,23.850586 C31.091553,22.62207 29.10315,22.62207 27.874634,23.850586 C27.34314,24.382324 25.08081,26.644531 24.544922,27.181152 C24.087769,27.637695 20.887451,26.688965 17.097656,22.898926 C15.407593,21.208984 14.061035,19.40039 13.3063965,17.806152 C12.62207,16.361328 12.683472,15.583984 12.816406,15.450684 C12.816406,15.450684 16.146362,12.120605 16.146362,12.120605 C17.371826,10.894531 17.371826,8.900879 16.146362,7.6748047 C16.146362,7.6748047 11.389404,2.9169922 11.389404,2.9169922 C10.163818,1.6914062 8.169922,1.6914062 6.944336,2.9169922 C6.4127197,3.4487305 4.1505127,5.711914 3.614502,6.2470703 C1.6258545,8.236328 1.4682617,11.704102 3.1707764,16.010254 C7.4698486,26.885742 21.050903,37.999023 29.32544,37.999023 C31.164062,37.999023 32.67163,37.459473 33.746826,36.38379 C33.746826,36.38379 37.07666,33.053223 37.07666,33.053223 C38.30493,31.825195 38.305298,29.836914 37.07666,28.60791 ZM9.79834,4.5078125 C9.79834,4.5078125 14.55542,9.266113 14.55542,9.266113 C14.903564,9.61377 14.903564,10.181152 14.55542,10.529297 C14.55542,10.529297 13.447998,11.636719 13.447998,11.636719 C13.447998,11.636719 7.4279785,5.6157227 7.4279785,5.6157227 C7.4279785,5.6157227 8.535278,4.5078125 8.535278,4.5078125 C8.883545,4.1601562 9.450195,4.1601562 9.79834,4.5078125 C9.79834,4.5078125 9.79834,4.5078125 9.79834,4.5078125 ZM24.8125,34.73535 C17.106323,31.687988 8.309448,22.889648 5.2630615,15.183105 C3.93042,11.812012 3.9094238,9.135254 5.2054443,7.838379 C5.2054443,7.838379 5.837036,7.2070312 5.837036,7.2070312 C5.837036,7.2070312 11.857056,13.228027 11.857056,13.228027 C11.857056,13.228027 11.225464,13.859863 11.225464,13.859863 C6.9995117,18.085938 21.905518,33.00244 26.135742,28.771973 C26.135742,28.771973 26.767334,28.140137 26.767334,28.140137 C26.767334,28.140137 32.787354,34.161133 32.787354,34.161133 C32.787354,34.161133 32.15576,34.79248 32.15576,34.79248 C30.859863,36.088867 28.18335,36.06787 24.8125,34.73535 C24.8125,34.73535 24.8125,34.73535 24.8125,34.73535 ZM35.485718,31.462402 C35.485718,31.462402 34.378418,32.569824 34.378418,32.569824 C34.378418,32.569824 28.358276,26.548828 28.358276,26.548828 C28.358276,26.548828 29.465698,25.441895 29.465698,25.441895 C29.814575,25.092285 30.37976,25.091797 30.729004,25.441895 C30.729004,25.441895 35.48584,30.19873 35.48584,30.19873 C35.83484,30.54834 35.83484,31.113281 35.485718,31.462402 ZM22.247803,16.172852 C23.116333,16.172852 23.822754,16.879395 23.822754,17.748047 C23.822754,18.369629 24.326416,18.873047 24.947754,18.873047 C25.569092,18.873047 26.072754,18.369629 26.072754,17.748047 C26.072754,15.638672 24.356934,13.922363 22.247803,13.922363 C21.626587,13.922363 21.122925,14.426758 21.122925,15.047852 C21.122925,15.668945 21.626587,16.172852 22.247803,16.172852 ZM22.247803,10.771973 C26.09375,10.771973 29.222534,13.901855 29.222534,17.748047 C29.222534,18.369629 29.726196,18.873047 30.347534,18.873047 C30.968994,18.873047 31.472412,18.369629 31.472412,17.748047 C31.472412,12.660645 27.33435,8.521973 22.247803,8.521973 C21.626587,8.521973 21.122925,9.025879 21.122925,9.647461 C21.122925,10.269043 21.626587,10.771973 22.247803,10.771973 ZM22.247803,5.3720703 C29.07129,5.3720703 34.622314,10.923828 34.622314,17.748047 C34.622314,18.369629 35.125977,18.873047 35.747314,18.873047 C36.368652,18.873047 36.872314,18.369629 36.872314,17.748047 C36.872314,9.683105 30.311768,3.121582 22.247803,3.121582 C21.626587,3.121582 21.122925,3.625 21.122925,4.2460938 C21.122925,4.868164 21.626587,5.3720703 22.247803,5.3720703 Z"/>
</svg>